<?xml version="1.0" standalone="no"?>
<!DOCTYPE svg PUBLIC "-//W3C//DTD SVG 20010904//EN"
 "http://www.w3.org/TR/2001/REC-SVG-20010904/DTD/svg10.dtd">
<svg version="1.0" xmlns="http://www.w3.org/2000/svg"
 width="3264.000000pt" height="3264.000000pt" viewBox="0 0 3264.000000 3264.000000"
 preserveAspectRatio="xMidYMid meet">

<g transform="translate(0.000000,3264.000000) scale(0.100000,-0.100000)"
fill="#000000" stroke="none">
<path d="M18553 31581 c-16 -9 -26 -68 -13 -76 5 -3 7 -12 3 -18 -4 -7 -8 -21
-8 -32 0 -11 -4 -25 -8 -32 -7 -11 -5 -49 7 -132 6 -37 0 -53 -41 -101 -84
-100 -133 -133 -159 -107 -23 23 -197 -8 -274 -48 -87 -47 -141 -66 -186 -66
-27 -1 -53 -5 -59 -9 -5 -4 -34 -10 -64 -13 -29 -4 -59 -11 -65 -16 -9 -7 -16
-7 -23 0 -7 7 -17 8 -25 3 -7 -5 -31 -10 -53 -11 -100 -6 -191 -35 -357 -112
-37 -17 -71 -31 -76 -31 -5 0 -15 -7 -22 -15 -7 -8 -19 -15 -27 -15 -7 0 -27
-16 -44 -35 -17 -19 -37 -35 -45 -35 -8 0 -14 -4 -14 -8 0 -5 -19 -21 -42 -38
-57 -40 -135 -120 -144 -147 -4 -12 -17 -35 -28 -52 -12 -16 -42 -70 -66 -119
-36 -71 -56 -97 -98 -131 -30 -23 -72 -48 -95 -55 -23 -6 -47 -16 -54 -22 -16
-13 -123 11 -130 29 -6 16 -35 17 -52 1 -11 -11 -11 -9 -2 9 6 12 11 26 11 31
0 14 -69 31 -146 36 -39 2 -79 9 -90 15 -37 21 -104 47 -126 50 -9 1 -8 4 2
11 13 8 13 10 -2 10 -9 0 -32 15 -50 34 -23 23 -46 36 -76 41 -24 4 -46 13
-49 21 -3 8 -12 14 -21 14 -13 0 -12 3 3 14 17 12 10 14 -65 14 -47 1 -115 5
-152 10 -37 4 -71 5 -75 2 -5 -4 -28 -15 -53 -24 -25 -10 -61 -28 -80 -41 -19
-13 -80 -40 -135 -61 -55 -20 -102 -40 -105 -43 -15 -19 -61 -40 -76 -34 -14
5 -16 3 -11 -11 5 -13 1 -19 -13 -23 -11 -3 -20 -9 -20 -14 0 -5 -6 -9 -13 -9
-7 0 -23 -9 -35 -20 -12 -11 -25 -20 -30 -20 -4 0 -25 -16 -46 -35 -21 -19
-42 -35 -47 -35 -21 0 -129 -133 -129 -159 0 -6 -9 -30 -19 -54 -39 -88 -69
-174 -80 -237 -7 -36 -19 -75 -27 -87 -8 -12 -14 -33 -14 -47 0 -14 -5 -28
-11 -32 -6 -3 -9 -19 -7 -35 3 -17 -1 -34 -9 -40 -7 -6 -13 -22 -13 -35 0 -12
-5 -26 -10 -29 -6 -4 -8 -10 -5 -14 5 -10 -21 -68 -35 -76 -5 -3 -7 -11 -4
-18 2 -7 -12 -30 -32 -51 -27 -27 -33 -40 -24 -46 14 -8 5 -50 -11 -50 -11 0
-1 -49 14 -68 11 -14 -6 -79 -30 -118 -7 -11 -10 -23 -7 -27 4 -3 -8 -18 -26
-33 -18 -15 -37 -33 -44 -39 -20 -20 -105 -57 -116 -50 -5 3 -19 1 -31 -6 -17
-9 -20 -8 -14 2 6 8 4 10 -4 4 -23 -13 -99 -12 -94 2 3 7 -1 14 -8 14 -26 3
-54 6 -78 7 -18 2 -21 5 -12 15 7 10 7 17 0 24 -8 8 -8 17 0 31 6 10 7 22 4
26 -4 3 2 12 12 20 10 7 20 26 22 42 2 16 11 35 20 41 20 15 17 18 -25 26 -28
6 -32 4 -28 -11 4 -12 -12 -30 -59 -65 -36 -26 -65 -52 -65 -57 0 -6 -8 -10
-18 -10 -11 0 -29 -9 -42 -20 -13 -11 -29 -20 -36 -20 -7 0 -23 -9 -36 -20
-12 -11 -39 -33 -58 -50 -19 -16 -39 -30 -45 -30 -17 -1 -67 -49 -61 -59 3 -5
-5 -12 -19 -15 -14 -4 -25 -12 -25 -20 0 -7 -11 -18 -24 -24 -14 -6 -27 -23
-31 -40 -5 -26 -59 -84 -128 -139 -33 -27 -130 -74 -142 -69 -7 2 -18 -1 -24
-7 -6 -6 -11 -8 -11 -4 0 10 -89 -27 -132 -54 -32 -21 -57 -65 -50 -91 1 -4
-7 -10 -18 -13 -21 -7 -53 -62 -44 -77 7 -11 -85 -97 -104 -98 -7 0 -28 -15
-46 -34 -17 -19 -54 -46 -80 -60 -48 -26 -154 -109 -169 -133 -4 -7 -13 -13
-19 -13 -6 0 -34 -21 -62 -48 -28 -26 -69 -61 -90 -77 -21 -17 -44 -35 -50
-41 -6 -5 -19 -13 -28 -17 -10 -3 -18 -11 -18 -17 0 -5 -5 -10 -11 -10 -6 0
-28 -17 -49 -37 -21 -21 -63 -49 -93 -63 -49 -22 -55 -28 -51 -50 4 -17 -3
-33 -20 -51 -14 -15 -22 -30 -19 -33 4 -3 -6 -19 -21 -35 -16 -16 -25 -34 -21
-41 5 -8 -6 -10 -37 -9 -51 3 -107 -14 -157 -48 -48 -33 -201 -192 -201 -210
0 -23 -63 -113 -80 -113 -12 -1 -11 -3 3 -14 12 -10 15 -16 7 -21 -6 -4 -14
-4 -17 -1 -3 3 -12 1 -19 -5 -8 -7 -14 -7 -19 1 -3 5 -15 10 -26 10 -10 0 -19
5 -19 10 0 6 -12 10 -27 10 -16 0 -38 10 -50 24 -17 17 -32 23 -55 21 -38 -3
-68 13 -61 32 4 10 -4 9 -28 -4 -43 -23 -59 -38 -59 -56 0 -8 -10 -18 -22 -24
-25 -11 -25 -12 -30 -173 -2 -52 -7 -100 -10 -106 -4 -6 -4 -14 -1 -18 7 -7 9
-16 17 -106 3 -30 6 -57 7 -60 1 -3 1 -9 0 -13 -2 -13 30 -71 59 -103 31 -36
65 -161 56 -206 -4 -20 -1 -30 9 -34 11 -5 12 -11 4 -26 -8 -15 -6 -23 10 -37
12 -10 21 -22 21 -27 0 -5 10 -30 22 -56 23 -47 30 -52 100 -62 10 -1 21 -6
25 -11 4 -4 2 -5 -4 -1 -9 5 -13 0 -13 -14 0 -12 5 -18 10 -15 16 10 12 -7 -7
-27 -13 -14 -13 -18 -2 -19 8 -1 19 -2 24 -4 6 -1 21 -3 34 -3 19 -2 22 -5 14
-13 -6 -6 -9 -18 -6 -25 3 -8 0 -14 -5 -14 -6 0 -14 -9 -17 -20 -7 -21 -57
-30 -53 -9 6 24 -20 18 -53 -11 -19 -16 -38 -30 -43 -30 -5 0 -22 -13 -38 -30
-15 -16 -33 -30 -39 -30 -6 0 -9 -6 -6 -14 3 -8 -3 -22 -14 -32 -11 -10 -17
-24 -15 -31 3 -7 1 -13 -5 -13 -16 0 -37 -25 -36 -41 2 -27 -16 -114 -29 -140
-7 -14 -13 -35 -13 -45 -2 -60 -14 -95 -40 -108 -19 -10 -27 -23 -29 -47 -1
-17 -6 -37 -9 -43 -8 -12 -13 -60 -16 -151 -1 -33 -8 -70 -15 -82 -6 -12 -12
-26 -12 -32 0 -5 -5 -22 -11 -38 -6 -15 -10 -30 -10 -33 0 -3 -8 -13 -16 -22
-9 -10 -13 -18 -9 -18 4 0 2 -10 -5 -21 -15 -30 -28 -131 -19 -148 4 -8 4 -25
-1 -38 -5 -13 -5 -23 -1 -23 4 0 9 -11 10 -23 1 -13 8 -37 17 -53 8 -16 15
-39 15 -51 0 -13 5 -23 10 -23 6 0 10 -11 10 -25 0 -14 6 -28 14 -31 7 -3 14
-16 14 -30 0 -29 29 -56 54 -50 10 2 15 -1 12 -9 -3 -7 6 -15 22 -19 15 -4 40
-16 56 -27 15 -11 32 -17 38 -14 5 3 10 2 10 -3 0 -5 15 -15 33 -22 17 -8 40
-20 49 -28 16 -13 69 -31 113 -37 11 -1 27 -5 35 -8 33 -12 92 -18 86 -9 -11
19 87 20 124 2 24 -12 42 -15 58 -9 22 8 32 -4 12 -16 -19 -12 -10 -25 16 -25
20 0 25 -4 20 -16 -3 -9 -6 -18 -6 -20 0 -3 -5 -2 -12 2 -7 4 -8 3 -4 -5 10
-15 -11 -41 -34 -41 -10 0 -20 -9 -23 -20 -4 -15 0 -20 16 -20 22 0 62 19 42
20 -18 1 20 20 39 20 31 0 128 52 122 65 -3 8 2 11 15 8 10 -3 19 -1 19 4 0
24 182 45 196 22 3 -5 -1 -9 -8 -9 -7 0 -4 -6 7 -12 11 -6 22 -12 24 -14 9 -8
18 -160 10 -170 -5 -6 -5 -24 -1 -40 8 -29 8 -68 -1 -151 -4 -33 0 -49 15 -68
11 -14 18 -32 15 -39 -3 -7 -2 -17 3 -22 5 -5 11 -53 14 -106 3 -54 7 -101 9
-105 3 -5 4 -27 2 -51 -1 -26 3 -48 11 -56 7 -8 10 -16 7 -20 -3 -3 -1 -11 4
-18 6 -7 9 -30 8 -50 -1 -21 0 -38 4 -38 3 0 7 -48 8 -108 1 -59 2 -134 3
-167 3 -122 -9 -536 -16 -547 -9 -14 -12 -36 -23 -173 -4 -55 -4 -105 0 -111
5 -6 5 -24 1 -40 -7 -26 -8 -51 -2 -64 2 -7 10 -42 13 -65 2 -11 13 -40 25
-65 12 -25 22 -55 22 -66 0 -12 7 -27 15 -34 8 -7 15 -19 15 -27 0 -8 18 -45
40 -83 22 -38 40 -71 40 -75 0 -3 11 -21 25 -39 14 -18 25 -38 25 -44 0 -7 5
-12 11 -12 6 0 9 -7 5 -15 -3 -8 -1 -15 4 -15 11 0 54 -92 69 -145 6 -23 9
-52 6 -65 -7 -37 16 -99 48 -131 16 -16 32 -29 37 -29 5 0 10 -4 12 -9 2 -5
46 -28 98 -52 52 -23 109 -53 126 -66 17 -12 35 -23 40 -23 12 0 104 -93 104
-105 0 -6 16 -21 35 -35 40 -30 91 -133 101 -205 2 -16 8 -54 13 -83 6 -40 5
-57 -4 -65 -11 -10 -10 -16 3 -31 11 -13 12 -17 3 -11 -11 6 -13 3 -8 -17 4
-14 4 -28 0 -31 -3 -4 -8 -19 -9 -33 -2 -15 -14 -55 -28 -90 -15 -35 -26 -72
-26 -82 0 -9 -7 -26 -15 -36 -8 -10 -22 -42 -31 -70 -9 -28 -20 -55 -24 -61
-16 -23 -68 -197 -74 -245 -1 -9 -5 -20 -8 -25 -5 -8 -20 -64 -23 -85 0 -3 -5
-12 -10 -20 -5 -8 -11 -24 -12 -34 -2 -11 -8 -25 -14 -32 -6 -7 -12 -25 -15
-41 -6 -40 -9 -54 -23 -88 -7 -16 -14 -34 -15 -40 -2 -5 -8 -23 -14 -38 -7
-16 -12 -35 -12 -44 0 -8 -8 -27 -19 -41 -10 -15 -22 -38 -26 -51 -4 -13 -23
-49 -41 -80 -42 -68 -41 -68 -87 -161 -21 -41 -37 -83 -37 -93 0 -9 -4 -25 -9
-35 -32 -61 -77 -216 -82 -282 -2 -19 -6 -39 -10 -45 -6 -10 -8 -34 -8 -135 0
-30 0 -64 0 -75 0 -18 12 -68 26 -105 3 -8 7 -19 9 -25 7 -30 25 -65 32 -65 5
0 8 -11 7 -25 -2 -14 0 -25 4 -25 4 0 15 -19 26 -42 17 -40 95 -128 113 -128
8 0 19 -8 68 -48 24 -21 57 -33 71 -28 11 5 13 2 9 -9 -3 -10 -1 -15 7 -13 14
2 49 -8 92 -27 17 -7 51 -16 78 -20 26 -4 47 -11 47 -16 0 -5 8 -9 18 -9 42
-1 159 -78 163 -108 0 -4 2 -23 3 -43 1 -20 7 -43 13 -51 9 -10 10 -42 4 -118
-5 -58 -6 -107 -2 -110 3 -3 7 -34 7 -70 1 -36 3 -130 4 -210 3 -127 5 -147
22 -162 14 -12 15 -17 6 -21 -10 -4 -10 -8 2 -16 8 -6 10 -11 5 -11 -6 0 -11
-9 -11 -19 0 -11 4 -17 8 -15 4 3 8 -6 8 -20 0 -39 0 -40 18 -61 26 -31 42
-63 42 -84 0 -11 9 -23 20 -26 11 -4 20 -12 19 -18 -3 -25 1 -37 14 -37 6 0
22 -16 35 -35 12 -19 29 -35 37 -35 8 0 15 -4 15 -10 0 -5 7 -10 15 -10 9 0
18 -7 22 -15 3 -9 33 -29 67 -45 33 -16 81 -46 106 -65 73 -58 84 -65 93 -65
5 0 7 -6 4 -12 -2 -7 3 -22 12 -32 9 -11 11 -16 3 -12 -11 7 -11 4 -2 -11 9
-14 10 -32 3 -65 -6 -26 -9 -74 -6 -108 3 -55 7 -65 39 -95 53 -50 77 -63 120
-66 40 -2 94 17 94 34 0 5 6 7 14 4 13 -5 146 25 166 38 6 3 58 6 118 6 123 1
273 -32 340 -75 87 -55 224 -79 318 -57 95 23 81 22 479 21 99 0 207 5 240 11
115 20 128 23 140 30 6 4 28 12 50 19 22 7 56 23 75 35 19 12 65 36 102 53 37
18 70 37 73 42 3 6 15 10 26 10 11 0 34 8 52 17 18 9 34 18 37 18 3 1 12 4 20
8 8 3 29 8 45 11 17 2 48 9 70 15 22 5 76 19 120 29 105 27 295 62 320 61 36
-3 155 21 206 40 58 23 123 60 163 95 16 14 32 26 35 26 3 0 22 14 41 30 19
16 55 40 80 52 25 13 47 26 50 30 15 20 242 47 385 47 83 -1 161 2 174 5 39 9
114 58 145 94 6 7 27 30 47 50 20 20 40 44 45 53 14 25 153 178 208 229 28 25
74 69 104 98 29 28 57 52 63 52 5 0 9 7 9 15 0 8 4 15 8 15 13 0 152 110 152
121 0 5 4 9 10 9 9 0 35 19 65 48 8 6 16 12 19 12 3 0 18 13 33 28 26 26 147
112 158 112 2 0 18 13 35 30 17 16 47 39 68 49 20 11 46 28 57 38 11 11 35 26
53 33 17 8 32 18 32 22 0 5 9 8 20 8 11 0 20 5 20 10 0 6 11 15 25 20 14 5 25
14 25 20 0 5 6 10 14 10 16 0 89 40 94 52 2 4 9 5 15 2 7 -2 22 4 34 15 11 11
24 17 27 14 3 -4 6 -1 6 5 0 7 7 12 15 12 8 0 15 3 15 8 0 4 25 18 55 32 30
14 55 28 55 33 0 4 5 7 11 7 6 0 28 14 49 30 21 17 41 30 44 30 9 0 70 43 74
53 2 4 7 5 12 2 5 -3 14 1 22 8 20 19 117 87 125 87 3 0 22 12 42 28 20 15 56
38 81 51 24 13 50 30 58 37 7 8 22 14 33 14 10 0 19 5 19 10 0 6 6 10 13 10 6
0 23 9 37 20 14 11 33 20 43 20 9 0 17 3 17 8 0 4 19 15 43 26 23 10 65 29 93
42 28 13 56 24 62 24 7 0 12 4 12 9 0 5 21 17 48 26 26 10 67 28 92 40 25 13
65 28 90 35 25 6 55 18 68 27 13 8 33 17 45 20 12 2 40 9 62 14 86 20 150 37
140 39 -13 2 80 30 123 37 17 3 32 9 32 14 0 5 9 9 19 9 11 0 23 5 26 10 4 6
10 8 15 5 5 -3 30 3 57 14 26 10 50 19 53 19 7 1 25 7 125 40 50 17 108 34
130 38 22 4 48 13 59 20 10 7 24 10 31 8 7 -3 16 -1 20 5 3 6 15 11 26 11 10
0 19 3 19 8 0 4 12 8 28 8 36 2 65 10 104 27 35 16 87 33 128 42 74 15 86 18
97 27 6 5 22 11 35 13 42 7 72 14 128 30 30 9 70 17 89 20 18 2 38 8 45 13 6
5 24 9 40 10 16 1 43 9 59 17 17 8 44 15 62 15 17 0 35 3 39 7 3 4 14 8 24 9
48 8 78 18 85 31 5 7 13 11 18 8 5 -4 6 -11 2 -18 -3 -6 8 -1 25 12 18 12 32
19 32 15 0 -3 7 -1 15 6 8 7 24 10 35 7 11 -3 20 -1 20 5 0 5 4 7 9 4 4 -3 19
3 31 14 27 23 37 25 43 8 5 -17 57 9 57 28 0 22 22 28 36 10 7 -11 18 -15 25
-10 9 5 6 10 -9 15 -12 5 -22 15 -22 24 0 18 12 19 28 3 17 -17 34 3 19 23 -7
9 -19 18 -27 22 -10 3 -7 6 8 6 12 1 25 -6 28 -14 4 -8 13 -15 21 -15 8 0 11
-5 7 -11 -4 -7 1 -10 11 -7 24 4 32 28 10 28 -11 0 -15 5 -11 15 6 17 -37 40
-59 31 -9 -3 -10 5 -6 27 6 29 31 51 31 27 0 -7 6 -5 16 5 9 8 14 21 11 28 -3
7 3 24 13 37 14 18 16 28 8 38 -9 10 -3 12 31 7 51 -6 66 15 32 46 -11 11 -21
21 -21 23 0 3 20 4 45 4 31 -1 45 -5 45 -15 0 -8 11 -13 29 -13 32 0 50 15 29
23 -7 3 3 5 22 6 28 0 31 -2 15 -9 -16 -7 -13 -9 18 -9 20 -1 37 4 37 9 0 6 4
10 10 10 5 0 7 -7 3 -16 -4 -10 1 -17 16 -21 12 -3 21 -13 21 -24 0 -11 -3
-18 -7 -17 -5 2 -9 -1 -11 -7 -6 -17 15 -16 34 2 17 17 17 17 12 -4 -4 -14 -2
-23 5 -23 8 0 7 -4 -1 -12 -9 -9 -15 -9 -24 0 -17 17 -38 15 -38 -3 0 -8 5
-15 11 -15 8 0 9 -11 5 -31 -5 -26 -3 -30 10 -25 9 3 18 6 20 6 3 0 2 5 -2 11
-4 8 1 9 15 4 18 -5 24 -2 28 14 5 21 23 30 23 12 0 -23 -14 -41 -32 -41 -15
0 -19 -5 -15 -20 3 -12 -1 -24 -11 -29 -14 -8 -12 -11 11 -16 15 -4 27 -13 27
-20 0 -7 8 -19 17 -26 9 -8 14 -9 10 -3 -8 13 65 10 119 -5 19 -5 34 -6 34 -1
0 4 48 8 108 9 59 1 181 4 272 7 233 8 569 10 675 2 174 -12 394 -56 450 -90
17 -10 39 -18 50 -18 13 0 68 -47 144 -120 67 -66 127 -120 131 -120 4 0 17
-16 29 -35 11 -19 25 -35 31 -35 5 0 10 -5 10 -11 0 -10 143 -196 165 -214 14
-12 68 -115 60 -115 -3 0 3 -10 14 -21 22 -24 61 -101 61 -122 0 -7 7 -22 15
-33 8 -12 19 -52 25 -90 6 -38 14 -71 18 -74 5 -3 9 -18 10 -35 1 -16 6 -48
11 -70 15 -64 30 -146 37 -205 3 -30 9 -59 12 -65 4 -5 7 -23 8 -40 3 -89 63
-303 111 -398 29 -58 104 -177 125 -198 8 -8 27 -33 41 -56 14 -23 30 -44 36
-47 5 -3 31 -44 57 -91 54 -97 103 -137 214 -179 134 -50 306 -142 475 -256
39 -26 100 -63 137 -83 37 -20 147 -90 245 -155 98 -65 210 -135 248 -157 138
-76 213 -120 338 -200 48 -31 118 -72 155 -92 37 -20 141 -87 232 -147 91 -61
190 -126 220 -145 283 -177 401 -271 635 -506 121 -121 300 -320 401 -445 16
-19 45 -53 65 -75 44 -48 229 -278 287 -357 23 -31 52 -68 64 -82 13 -13 41
-50 63 -82 22 -31 45 -62 50 -68 11 -12 60 -80 121 -166 239 -342 435 -735
573 -1145 27 -82 69 -202 91 -265 37 -101 117 -350 140 -435 28 -101 60 -224
64 -245 3 -14 14 -63 26 -110 11 -47 29 -128 40 -180 11 -52 26 -120 35 -150
8 -30 27 -116 41 -190 45 -232 78 -370 86 -362 12 12 151 384 233 622 357
1040 596 2045 744 3125 117 855 168 1783 142 2611 -15 520 -59 1186 -79 1206
-7 6 -41 8 -477 28 -121 6 -296 15 -390 20 -221 13 -306 18 -565 30 -118 6
-278 15 -355 20 -77 5 -205 12 -285 15 -80 3 -184 8 -232 11 l-88 6 0 317 c0
323 6 385 38 393 9 2 64 3 120 2 87 -3 103 -1 98 11 -3 8 -1 17 4 20 6 4 10
-1 10 -9 0 -24 13 -27 127 -32 135 -5 158 -1 173 36 20 48 -7 101 -65 125 -30
13 -215 31 -395 39 l-95 4 -1 194 c-1 106 1 219 4 252 l5 59 146 -7 c950 -43
1255 -58 1501 -71 47 -3 132 -7 190 -10 58 -2 154 -7 214 -11 l109 -6 -6 54
c-11 88 -102 503 -182 823 -472 1902 -1286 3708 -2400 5325 -656 951 -1417
1838 -2245 2614 -1013 950 -2067 1721 -3265 2388 -283 158 -768 408 -743 383
3 -4 2 -19 -2 -35 -4 -16 -5 -31 -2 -35 4 -4 8 -52 9 -108 1 -56 3 -115 4
-132 1 -16 -1 -40 -5 -52 -5 -14 -3 -23 3 -23 6 0 11 -5 11 -11 0 -5 -4 -8 -8
-5 -5 3 -8 -20 -7 -50 0 -30 -2 -54 -6 -54 -14 0 -15 -50 -2 -87 17 -45 17
-154 0 -166 -9 -7 -9 -10 1 -14 6 -2 10 -9 6 -14 -3 -5 -7 -42 -10 -81 -2 -40
-7 -102 -10 -138 -3 -36 -6 -73 -7 -82 -1 -10 -5 -18 -10 -18 -5 0 -5 -6 2
-13 8 -10 7 -17 -1 -25 -9 -9 -9 -12 1 -12 9 0 11 -13 7 -44 -3 -29 0 -47 7
-50 7 -2 8 -5 2 -5 -15 -1 -11 -241 4 -269 8 -16 9 -27 3 -35 -9 -11 -22 -129
-26 -238 -1 -22 -8 -44 -15 -48 -8 -5 -11 -17 -6 -30 3 -11 2 -21 -3 -21 -16
0 -34 28 -26 41 5 9 2 10 -12 4 -45 -19 -134 -9 -134 16 0 5 -7 6 -15 3 -9 -4
-15 0 -15 10 0 14 -11 20 -32 17 -4 0 -15 10 -23 23 -9 14 -30 29 -47 35 -21
8 -28 15 -24 26 4 11 -3 19 -20 25 -14 6 -54 39 -90 75 -46 46 -74 66 -99 71
-19 3 -35 10 -35 15 0 5 -6 9 -13 9 -7 0 -21 12 -32 26 -33 44 -56 69 -66 70
-5 1 -13 2 -19 3 -5 0 -7 7 -5 14 3 7 -14 22 -39 36 -57 30 -80 56 -82 90 -1
16 -11 39 -22 52 -12 13 -20 26 -19 29 1 3 -8 18 -20 34 -13 16 -23 34 -23 40
0 7 -16 27 -35 46 -19 19 -35 40 -35 46 0 6 -7 17 -15 24 -8 7 -15 19 -15 27
0 23 -112 131 -145 139 -16 4 -38 14 -48 22 -15 13 -20 14 -26 3 -6 -10 -17
-10 -47 -2 -21 6 -56 11 -76 13 -28 1 -37 6 -35 17 2 15 -56 32 -110 31 -13 0
-23 5 -23 10 0 6 -13 10 -28 10 -15 0 -32 4 -38 10 -6 6 -21 6 -42 1 -21 -6
-32 -6 -32 0 0 6 -4 7 -10 4 -5 -3 -24 -8 -43 -10 -18 -2 -64 -11 -101 -20
-68 -16 -117 -14 -199 6 -28 8 -36 13 -28 22 7 9 0 24 -24 51 -19 22 -32 43
-30 46 3 4 -4 15 -15 25 -11 10 -20 28 -20 40 0 14 -10 26 -26 33 -14 7 -22
17 -19 22 3 6 0 10 -8 10 -8 0 -22 11 -30 24 -10 14 -29 25 -51 29 -20 3 -48
15 -63 26 -27 22 -53 27 -53 11 0 -5 -17 -7 -37 -4 -21 2 -46 5 -56 6 -17 2
-17 3 -2 14 15 11 15 13 -4 24 -19 10 -25 7 -22 -12 2 -12 -9 -9 -25 7 -8 8
-21 12 -28 9 -7 -3 -16 2 -19 10 -3 9 -23 22 -43 31 -29 12 -35 19 -31 36 3
12 1 19 -6 16 -6 -2 -31 7 -56 19 -47 24 -64 24 -54 -2 3 -9 0 -14 -8 -12 -18
4 -23 -35 -10 -73 9 -26 8 -29 -15 -35 -13 -3 -24 -10 -24 -15 0 -5 -8 -9 -17
-9 -10 -1 -35 -7 -55 -14 -32 -12 -39 -11 -50 1 -6 8 -20 12 -31 9 -29 -7 -78
4 -70 17 4 6 -2 8 -15 5 -13 -4 -20 -1 -19 5 1 6 -2 11 -8 12 -5 0 -21 7 -35
15 -14 7 -26 11 -27 9 -1 -2 -5 -1 -9 4 -4 4 2 7 14 7 12 0 22 5 22 11 0 5 -4
8 -9 4 -5 -3 -18 5 -28 18 -10 13 -23 22 -29 20 -6 -2 -23 11 -39 28 -17 19
-22 30 -12 26 10 -4 22 1 29 11 7 9 26 19 43 21 16 1 38 9 48 16 11 8 26 11
35 8 11 -5 14 -2 9 10 -5 14 -1 16 25 13 17 -2 36 -10 42 -18 8 -11 71 -19 71
-8 0 6 53 6 70 -1 49 -19 62 -22 101 -24 23 -1 52 -9 64 -18 12 -8 30 -12 41
-10 19 5 19 7 3 24 -9 11 -27 19 -38 20 -21 0 -21 1 -1 8 11 5 22 5 25 1 7 -9
66 -21 73 -14 12 12 -50 57 -131 94 -120 57 -138 65 -207 91 -33 12 -70 29
-82 37 -16 10 -37 12 -70 8 -27 -3 -58 -7 -70 -7 -21 -1 -27 -8 -20 -26 2 -8
25 -12 85 -14 23 0 42 -5 42 -9 0 -5 -19 -14 -42 -20 -24 -6 -56 -18 -71 -26
-16 -8 -38 -14 -49 -14 -19 0 -19 1 -5 24 19 29 17 82 -3 78 -82 -19 -122 -31
-110 -32 23 -2 -54 -27 -86 -28 -16 0 -51 -6 -77 -12 -27 -5 -52 -8 -57 -5 -5
3 -11 1 -15 -4 -3 -6 -20 -8 -38 -6 -18 2 -48 6 -68 9 -19 2 -54 1 -76 -3 -23
-5 -48 -4 -57 1 -11 6 -16 5 -16 -6 0 -22 -97 21 -138 61 -18 18 -38 33 -45
33 -7 0 -21 7 -31 15 -11 8 -27 15 -36 15 -9 0 -31 7 -48 15 -23 12 -40 13
-71 6 -22 -5 -42 -6 -45 -3 -3 2 -22 6 -43 8 -21 2 -83 9 -138 17 -106 16
-156 37 -189 82 -10 14 -29 25 -41 25 -26 0 -62 39 -71 77 -4 16 -9 32 -12 38
-15 25 -20 108 -7 118 6 6 6 10 -3 14 -6 2 -10 9 -6 14 3 5 -1 9 -8 9 -18 0
-60 68 -51 83 4 7 0 7 -10 -2 -15 -12 -17 -11 -18 5 -1 11 -1 26 0 34 1 16
-38 23 -56 11z m1647 -681 c0 -5 -12 -10 -27 -10 -22 0 -25 2 -13 10 20 13 40
13 40 0z m-2565 -10 c-3 -5 -20 -10 -36 -10 -18 0 -28 4 -24 10 3 6 20 10 36
10 18 0 28 -4 24 -10z m-15 -23 c14 1 30 -3 36 -8 7 -5 16 -9 20 -8 5 1 20 1
34 0 l25 -2 -25 -11 c-19 -8 -21 -12 -10 -16 24 -8 29 -24 16 -50 -10 -20 -35
-32 -117 -57 -63 -20 -115 -31 -132 -28 -21 4 -26 2 -22 -9 4 -9 -7 -18 -32
-27 -21 -7 -69 -26 -106 -43 -65 -29 -157 -42 -174 -25 -3 4 -1 7 5 7 7 0 12
8 12 18 0 9 9 23 20 30 11 6 19 20 17 30 -3 25 81 98 123 106 19 3 42 16 52
28 9 13 28 23 45 24 30 1 82 13 98 23 6 3 17 6 25 8 8 1 16 7 18 13 2 6 12 8
25 3 12 -4 33 -6 47 -6z m2694 -36 c7 -10 -22 -37 -30 -28 -9 8 3 37 15 37 5
0 12 -4 15 -9z m3473 -108 c-3 -10 -5 -4 -5 12 0 17 2 24 5 18 2 -7 2 -21 0
-30z m-37 -548 c-7 -8 -16 -15 -21 -15 -11 0 1 33 15 42 16 11 20 -10 6 -27z
m39 -753 c1 -26 9 -55 20 -71 14 -20 21 -50 24 -116 3 -50 10 -101 15 -115 16
-42 7 -276 -13 -345 -9 -33 -25 -104 -35 -157 -23 -122 -28 -138 -46 -138 -11
0 -13 14 -9 68 2 37 9 83 14 102 16 50 15 65 -3 51 -26 -22 -39 23 -33 111 4
53 3 78 -4 78 -11 0 -9 76 4 153 2 15 0 27 -4 27 -15 0 -10 48 6 54 8 3 15 11
15 17 0 8 -4 8 -15 -1 -13 -11 -15 2 -16 106 -2 145 -1 155 16 174 7 8 21 33
30 55 17 39 18 39 25 15 5 -14 8 -45 9 -68z m2391 -1956 c0 -16 -18 -31 -27
-22 -8 8 5 36 17 36 5 0 10 -6 10 -14z m-14940 -607 c0 -5 -7 -9 -15 -9 -15 0
-20 12 -9 23 8 8 24 -1 24 -14z m-195 -2415 c1 -5 15 -38 33 -73 18 -34 32
-71 32 -80 0 -23 -19 -41 -36 -34 -8 3 -22 -1 -31 -8 -15 -12 -16 -12 -10 3 4
12 -2 24 -20 38 -15 11 -27 28 -28 38 0 10 -5 23 -9 30 -5 8 -1 20 8 31 9 10
16 24 16 32 0 29 44 51 45 23z m835 -284 c0 -10 7 -23 16 -28 11 -6 13 -11 5
-16 -17 -11 -13 -26 7 -27 16 -1 16 -2 0 -6 -10 -2 -19 -10 -20 -16 -7 -59
-18 -77 -44 -77 -13 0 -24 -3 -24 -8 0 -4 -20 -6 -45 -4 -38 3 -44 6 -34 18 6
8 8 14 3 14 -5 0 6 14 25 30 29 26 31 30 13 30 -11 0 -24 5 -28 12 -5 7 -1 9
13 6 28 -7 54 8 30 18 -28 10 -20 24 14 24 27 0 30 2 19 15 -10 13 -9 15 9 15
11 0 21 5 21 10 0 6 5 10 10 10 6 0 10 -9 10 -20z m-853 -6 c-3 -3 -12 -4 -19
-1 -8 3 -5 6 6 6 11 1 17 -2 13 -5z m713 -199 c0 -1 -8 -9 -17 -16 -10 -7 -15
-9 -11 -5 4 5 3 15 -3 22 -8 9 -5 11 10 7 12 -3 21 -7 21 -8z m55 -3 c-3 -3
-11 0 -18 7 -9 10 -8 11 6 5 10 -3 15 -9 12 -12z m8135 -33 c-9 -15 -8 -24 0
-35 7 -7 10 -20 7 -28 -6 -14 26 -33 46 -28 5 1 6 -2 3 -7 -3 -5 -17 -11 -31
-14 -31 -5 -61 31 -52 63 3 11 1 23 -5 26 -5 3 -2 14 9 24 24 25 36 25 23 -1z
m-45 -60 c11 -16 1 -19 -13 -3 -7 8 -8 14 -3 14 5 0 13 -5 16 -11z m109 -74
c3 -9 0 -15 -9 -15 -8 0 -15 7 -15 15 0 8 4 15 9 15 5 0 11 -7 15 -15z m-34
-35 c0 -5 -5 -10 -11 -10 -5 0 -7 5 -4 10 3 6 8 10 11 10 2 0 4 -4 4 -10z m50
-10 c0 -5 -4 -10 -9 -10 -5 0 -18 -3 -28 -7 -16 -6 -16 -5 -4 10 15 19 41 23
41 7z m14 -45 c3 -8 2 -15 -3 -15 -5 0 -14 7 -21 15 -10 12 -10 15 3 15 8 0
17 -7 21 -15z m16 -39 c0 -2 -7 -7 -16 -10 -8 -3 -12 -2 -9 4 6 10 25 14 25 6z
m5 -26 c-3 -5 -11 -10 -16 -10 -6 0 -7 5 -4 10 3 6 11 10 16 10 6 0 7 -4 4
-10z m5 -35 c0 -8 -4 -15 -10 -15 -5 0 -7 7 -4 15 4 8 8 15 10 15 2 0 4 -7 4
-15z m5 -35 c-3 -5 -10 -10 -16 -10 -5 0 -9 5 -9 10 0 6 7 10 16 10 8 0 12 -4
9 -10z m18 -51 c3 -10 2 -19 -1 -19 -14 0 -27 15 -28 32 -2 22 23 12 29 -13z
m6061 -44 c-4 -8 -8 -15 -10 -15 -2 0 -4 7 -4 15 0 8 4 15 10 15 5 0 7 -7 4
-15z m-6014 -45 c0 -5 -5 -10 -11 -10 -5 0 -7 5 -4 10 3 6 8 10 11 10 2 0 4
-4 4 -10z m35 0 c3 -5 1 -10 -4 -10 -6 0 -11 5 -11 10 0 6 2 10 4 10 3 0 8 -4
11 -10z m5 -66 c0 -8 -2 -14 -4 -14 -2 0 -11 -3 -19 -6 -10 -4 -14 1 -12 18 3
29 2 28 20 22 8 -4 15 -12 15 -20z m-10 -54 c0 -5 7 -10 15 -10 8 0 15 -4 15
-9 0 -13 -37 -2 -51 15 -9 11 -8 14 5 14 9 0 16 -4 16 -10z m60 -39 c3 -1 -2
-6 -10 -11 -13 -8 -12 -11 5 -24 11 -9 16 -16 10 -17 -5 0 -19 -2 -31 -3 -15
-2 -20 3 -19 18 1 12 -2 26 -7 33 -7 9 -2 11 19 9 15 -2 30 -4 33 -5z m0 -81
c0 -5 8 -10 17 -10 12 0 14 -3 7 -10 -14 -14 -44 -2 -44 16 0 8 5 14 10 14 6
0 10 -4 10 -10z m50 -120 c0 -5 -7 -10 -16 -10 -8 0 -12 -4 -9 -10 7 -11 -8
-14 -18 -3 -4 3 1 12 11 20 12 10 14 16 5 19 -7 3 -13 13 -13 22 0 13 4 12 20
-6 11 -12 20 -26 20 -32z m24 -71 c-6 -11 -24 -2 -24 11 0 5 7 7 15 4 8 -4 12
-10 9 -15z m-34 -9 c0 -5 -5 -10 -11 -10 -5 0 -7 5 -4 10 3 6 8 10 11 10 2 0
4 -4 4 -10z m42 -50 c26 0 37 -13 20 -24 -12 -7 -72 22 -72 36 0 9 3 9 12 0 7
-7 25 -12 40 -12z m-12 -46 c0 -8 -5 -12 -10 -9 -6 4 -8 11 -5 16 9 14 15 11
15 -7z m9 -79 c-7 -6 -13 -5 -19 5 -12 20 -2 32 15 17 8 -8 10 -16 4 -22z m-9
-35 c0 -5 -4 -10 -10 -10 -5 0 -10 5 -10 10 0 6 5 10 10 10 6 0 10 -4 10 -10z
m60 -180 c0 -5 -4 -10 -9 -10 -6 0 -13 5 -16 10 -3 6 1 10 9 10 9 0 16 -4 16
-10z m2990 -3270 c0 -5 -5 -10 -11 -10 -5 0 -7 5 -4 10 3 6 8 10 11 10 2 0 4
-4 4 -10z m36 -47 c-3 -3 -13 -2 -23 1 -17 7 -17 8 2 22 18 13 20 13 23 -1 2
-9 1 -19 -2 -22z m6884 -427 c0 -3 -4 -8 -10 -11 -5 -3 -10 -1 -10 4 0 6 5 11
10 11 6 0 10 -2 10 -4z"/>
<path d="M20760 30720 c-12 -8 -10 -10 8 -10 13 0 20 4 17 10 -7 12 -6 12 -25
0z"/>
<path d="M20435 30570 c-3 -5 -1 -10 4 -10 6 0 11 5 11 10 0 6 -2 10 -4 10 -3
0 -8 -4 -11 -10z"/>
<path d="M4906 21535 c4 -8 1 -15 -5 -15 -11 0 -8 -230 4 -330 13 -113 65
-322 100 -405 37 -88 91 -269 97 -325 2 -14 12 -29 25 -34 41 -19 62 -134 29
-159 -6 -5 -2 -6 10 -3 14 4 21 2 21 -7 0 -8 -7 -12 -17 -10 -23 6 -49 -25
-30 -37 10 -6 9 -13 -8 -35 -11 -14 -18 -33 -15 -41 3 -8 0 -14 -7 -14 -10 0
-10 -3 0 -15 10 -12 10 -15 -4 -15 -9 0 -16 -4 -16 -10 0 -5 7 -7 15 -4 8 4
15 1 15 -5 0 -6 -4 -11 -9 -11 -4 0 -14 -20 -21 -45 -7 -25 -17 -45 -22 -45
-5 0 -7 -4 -4 -9 9 -14 -32 -44 -50 -37 -12 4 -15 2 -10 -9 7 -19 -4 -19 -31
0 -15 10 -24 12 -28 5 -5 -8 -11 -6 -18 4 -8 11 -45 20 -109 28 -54 7 -98 16
-98 20 0 4 -9 8 -19 8 -33 0 -51 11 -51 31 0 10 -5 19 -11 19 -5 0 -7 -4 -4
-10 3 -5 -3 -10 -14 -10 -24 0 -67 -38 -92 -82 -65 -116 -65 -120 -60 -354 1
-60 -2 -146 -8 -190 -23 -183 -36 -328 -32 -387 2 -47 21 -106 71 -222 21 -49
41 -101 44 -115 3 -14 10 -43 16 -65 12 -50 7 -55 -145 -145 -205 -121 -345
-289 -373 -448 -13 -75 -6 -227 13 -297 10 -33 32 -116 51 -185 44 -166 66
-233 103 -307 17 -34 31 -67 31 -72 0 -6 5 -11 10 -11 6 0 10 -7 10 -14 0 -15
39 -100 105 -229 46 -89 82 -207 89 -287 3 -36 8 -81 10 -100 15 -111 15 -210
-1 -247 -9 -21 -17 -40 -18 -43 -3 -15 -37 -70 -43 -70 -4 0 -25 -27 -47 -60
-22 -33 -43 -60 -47 -60 -4 0 -5 -7 -2 -15 4 -8 2 -15 -4 -15 -8 0 -82 -103
-82 -115 0 -2 -13 -32 -29 -65 -16 -33 -41 -96 -56 -140 -30 -90 -35 -198 -15
-310 12 -67 124 -429 143 -465 6 -11 12 -22 12 -25 4 -22 82 -172 109 -211 20
-26 50 -76 68 -110 46 -88 69 -128 101 -176 15 -24 27 -46 27 -50 0 -5 16 -31
35 -60 47 -70 69 -109 132 -237 30 -59 59 -113 64 -120 16 -20 99 -148 99
-154 0 -2 10 -14 23 -26 12 -11 29 -32 39 -46 14 -21 150 -183 182 -216 6 -6
65 -70 130 -143 66 -72 123 -131 126 -131 3 0 24 -17 47 -37 98 -92 184 -166
215 -187 18 -12 56 -38 83 -57 81 -56 181 -114 340 -199 55 -29 106 -57 113
-62 19 -16 75 -48 95 -54 9 -4 17 -10 17 -15 0 -5 7 -9 15 -9 8 0 24 -8 36
-18 11 -9 33 -27 47 -39 15 -13 32 -23 37 -23 6 0 48 -32 95 -71 47 -39 95
-78 107 -86 49 -33 51 -106 3 -172 -11 -16 -20 -38 -20 -48 0 -10 -5 -24 -11
-30 -14 -14 67 -94 87 -86 8 3 14 -1 14 -11 0 -9 7 -19 15 -22 8 -4 15 -13 15
-21 0 -9 6 -13 15 -10 8 4 17 2 20 -3 4 -6 1 -10 -6 -10 -7 0 -9 -3 -5 -7 4
-5 13 -8 19 -8 6 0 15 -15 21 -32 5 -18 15 -33 23 -33 9 0 12 -7 7 -24 -4 -16
-1 -25 11 -30 11 -4 14 -12 10 -25 -3 -11 -2 -22 4 -25 5 -3 7 -15 4 -26 -3
-12 0 -20 8 -20 8 0 5 -6 -7 -15 -19 -15 -19 -15 0 -30 28 -21 33 -20 72 21
19 20 34 34 34 30 0 -4 25 22 55 58 31 36 64 71 73 78 10 7 35 38 57 68 22 30
43 56 47 58 5 2 8 8 8 13 0 6 18 36 39 67 21 31 81 120 132 197 109 165 158
227 282 352 27 28 45 39 52 33 7 -6 15 -6 21 0 5 5 25 10 43 12 32 3 38 9 71
73 67 131 129 233 192 311 35 43 77 97 93 120 72 99 149 199 157 202 4 2 8 8
8 13 0 5 13 24 29 42 42 47 131 167 131 176 0 5 11 16 25 25 14 9 25 23 25 31
0 8 5 15 10 15 6 0 9 3 8 8 -3 9 66 82 78 82 12 0 64 55 64 67 0 5 11 16 25
23 14 7 25 19 25 26 0 7 8 15 18 18 19 7 142 118 142 129 0 8 30 44 80 96 19
20 33 42 32 49 -2 7 4 15 12 18 9 3 14 10 11 14 -2 4 5 16 16 26 25 22 99 129
99 142 0 5 9 17 20 27 11 10 20 24 20 32 0 8 11 24 24 36 14 13 28 36 32 53 4
16 14 40 24 54 9 14 27 52 39 85 13 33 36 90 52 128 16 37 29 73 29 80 0 7 11
35 25 63 13 27 26 58 28 69 2 11 14 42 26 69 12 28 34 86 48 130 14 45 28 85
31 91 3 5 7 25 9 43 2 19 10 46 17 61 17 34 76 222 76 243 0 9 5 20 10 23 6 3
10 21 10 40 0 18 4 35 10 37 5 2 10 18 12 36 1 19 6 36 10 38 5 3 6 10 2 15
-3 5 -1 15 4 22 5 7 12 28 15 47 16 92 28 137 54 197 7 17 13 42 13 55 0 22
47 174 77 248 7 19 14 40 14 45 0 6 6 19 13 30 12 20 51 131 51 150 0 6 3 15
7 20 3 6 13 42 23 80 20 82 23 179 5 200 -7 8 -10 15 -6 15 3 0 1 11 -4 25 -6
16 -6 25 0 25 6 0 10 5 10 11 0 7 -10 9 -25 7 -26 -5 -34 5 -14 18 8 4 7 9 -2
15 -12 8 -11 11 1 19 13 9 10 14 -15 36 -16 13 -23 22 -14 19 9 -4 16 0 16 8
0 9 -8 12 -24 9 -18 -3 -22 -1 -17 12 4 10 1 16 -7 16 -10 1 -9 4 3 10 16 10
16 12 0 40 -9 16 -20 30 -24 30 -3 0 -5 14 -3 30 3 20 0 30 -9 30 -7 0 -18 19
-25 42 -7 23 -26 54 -43 70 -16 15 -26 32 -23 38 8 13 -23 50 -42 50 -9 0 -12
7 -7 25 4 18 2 25 -8 25 -7 0 -14 10 -15 22 -1 11 -8 25 -15 29 -10 6 -10 9
-1 9 15 0 7 27 -15 53 -8 9 -12 17 -7 17 4 0 3 6 -2 13 -6 6 -16 29 -23 50 -7
22 -18 51 -26 65 -8 15 -14 32 -14 39 0 6 -5 24 -12 40 -15 37 -18 50 -25 101
-3 23 -10 45 -14 48 -5 3 -9 14 -9 25 0 10 -5 19 -11 19 -6 0 -9 6 -6 13 2 6
-2 28 -10 47 -52 128 -88 267 -98 375 -3 28 -7 75 -10 105 -2 30 -7 69 -9 85
-14 99 -27 226 -26 265 2 89 -5 205 -13 218 -5 6 -4 12 0 12 7 0 9 57 4 78 -1
1 -10 -2 -22 -8 -15 -8 -24 -8 -34 0 -8 7 -16 7 -19 2 -3 -6 2 -13 12 -17 16
-6 16 -7 -1 -17 -14 -7 -23 -6 -36 6 -10 9 -23 16 -29 16 -7 0 -12 5 -12 11 0
5 -5 7 -11 3 -8 -4 -7 -9 2 -15 7 -4 11 -11 7 -14 -3 -3 -13 1 -21 10 -9 8
-20 15 -26 15 -6 0 -11 5 -11 11 0 5 -4 7 -10 4 -5 -3 -10 -1 -10 6 0 7 10 9
25 6 16 -3 24 0 22 7 -2 6 8 16 22 22 14 5 21 13 15 17 -6 3 -23 0 -37 -8 -26
-13 -27 -13 -16 7 9 16 8 23 -2 29 -24 15 -34 10 -13 -6 18 -14 17 -15 -16
-13 -31 3 -35 6 -35 30 -1 36 -11 44 -31 27 -16 -13 -16 -12 -5 9 6 12 16 22
21 22 20 0 9 21 -15 30 -36 14 -34 42 3 35 26 -6 26 -6 7 10 -24 19 -115 18
-108 -2 3 -7 9 -13 15 -13 5 0 6 -5 3 -11 -5 -7 -13 -5 -24 5 -20 18 -35 21
-25 5 3 -6 0 -15 -7 -20 -12 -8 -12 -11 1 -19 8 -5 13 -10 10 -11 -24 -4 -57
-5 -67 -2 -19 7 -16 31 5 36 10 3 6 5 -11 6 -27 1 -28 -1 -22 -29 4 -19 3 -30
-4 -30 -6 0 -10 6 -8 13 1 6 -4 11 -10 10 -7 -2 -13 4 -13 13 0 14 -8 16 -49
11 -49 -6 -50 -5 -56 24 -5 20 -13 29 -27 29 -13 0 -18 5 -15 14 3 7 -2 20
-11 28 -10 8 -25 25 -35 37 -10 12 -22 19 -27 16 -6 -3 -10 -1 -10 5 0 7 8 9
20 5 15 -5 18 -3 14 9 -3 9 -1 16 5 16 6 0 11 4 11 9 0 6 -9 9 -20 8 -11 -1
-20 -7 -20 -13 0 -7 -5 -14 -11 -16 -5 -2 -11 -10 -13 -18 -4 -22 -18 -53 -30
-68 -19 -25 -62 -168 -71 -237 -1 -5 -4 -17 -7 -25 -8 -17 -33 -147 -47 -235
-9 -60 -8 -143 4 -325 8 -128 14 -190 20 -220 3 -14 7 -45 10 -70 3 -24 10
-60 15 -80 5 -19 25 -123 45 -230 19 -107 37 -204 39 -215 3 -11 12 -56 21
-100 9 -44 31 -129 48 -190 33 -120 34 -144 11 -255 -22 -106 -46 -128 -176
-156 -67 -14 -82 -14 -188 2 -63 10 -118 22 -121 27 -3 5 -9 8 -13 8 -3 -1
-27 -1 -52 -1 -37 0 -45 3 -40 15 4 11 -2 15 -21 15 -14 0 -31 7 -38 16 -9 14
-16 14 -33 5 -30 -16 -28 -35 3 -27 19 5 23 3 19 -9 -4 -8 -14 -15 -23 -15
-10 0 -18 -7 -18 -15 0 -8 5 -15 10 -15 5 0 20 -11 33 -25 13 -14 33 -25 46
-25 13 0 32 -7 42 -15 11 -8 14 -15 8 -15 -7 0 -12 -5 -12 -11 0 -6 9 -8 21
-4 18 6 21 4 17 -12 -7 -25 21 -43 53 -37 13 2 17 1 9 -2 -28 -13 -42 -51 -15
-40 8 3 15 1 15 -4 0 -6 7 -10 15 -10 18 0 115 -97 112 -113 -1 -6 8 -16 21
-22 12 -5 22 -15 22 -22 0 -7 9 -13 21 -13 22 0 58 -36 59 -58 0 -7 4 -11 9
-8 5 3 11 -1 15 -9 3 -8 12 -15 20 -15 16 0 31 -34 21 -50 -3 -5 0 -7 8 -4 9
3 17 -3 20 -17 4 -14 11 -20 20 -16 13 5 13 2 2 -20 -8 -15 -11 -31 -7 -37 4
-6 8 -2 10 11 4 26 28 38 36 17 3 -8 13 -14 23 -14 15 0 15 -2 3 -9 -8 -6 -17
-8 -21 -5 -4 2 -10 0 -14 -6 -3 -5 3 -10 14 -10 11 0 23 -4 26 -10 3 -5 1 -10
-4 -10 -6 0 -11 -12 -11 -26 0 -23 3 -26 29 -22 27 4 28 2 20 -18 -6 -18 -5
-22 6 -17 8 3 15 0 15 -6 0 -6 -9 -11 -20 -11 -17 0 -19 -3 -10 -19 8 -16 6
-21 -11 -26 -14 -5 -18 -10 -11 -17 6 -6 8 -17 5 -24 -3 -8 0 -14 6 -14 6 0
11 5 11 10 0 6 7 10 16 10 10 0 14 6 11 14 -4 9 0 12 12 9 10 -3 34 0 54 5 33
9 36 8 41 -14 4 -13 13 -24 22 -24 9 0 12 -5 8 -11 -3 -6 0 -16 7 -21 11 -7
11 -11 2 -15 -19 -7 -15 -25 5 -22 9 1 30 -1 46 -6 20 -5 31 -4 36 6 5 7 21
13 36 14 20 0 30 6 34 21 4 19 11 22 48 20 31 -2 41 1 38 11 -3 7 2 19 10 28
14 13 13 15 -9 15 -14 0 -27 -5 -29 -12 -3 -8 -11 -9 -24 -3 -18 8 -18 9 4 13
20 3 23 9 20 38 -2 19 -6 34 -11 34 -4 0 -14 5 -21 12 -12 11 -11 14 2 22 14
8 14 10 -3 17 -17 7 -18 8 -2 8 20 1 24 21 4 21 -20 0 -51 37 -37 45 5 3 8 10
5 15 -3 5 5 16 17 24 l22 16 -22 0 c-12 0 -22 5 -22 10 0 6 7 10 15 10 8 0 15
7 15 15 0 9 9 15 23 15 35 0 97 -20 97 -31 0 -6 12 -8 29 -4 24 5 32 2 41 -15
8 -15 15 -18 28 -11 12 7 21 2 38 -20 11 -16 24 -26 28 -22 11 11 26 -20 20
-40 -5 -15 -1 -17 20 -11 18 4 26 2 26 -6 0 -18 31 -39 58 -40 12 0 25 -7 29
-16 4 -12 8 -12 13 -4 5 9 10 6 15 -9 3 -11 12 -21 20 -21 7 0 15 -9 18 -20 3
-11 12 -20 21 -20 19 0 20 -5 6 -31 -9 -16 -7 -19 14 -19 13 0 26 -7 29 -15 8
-19 -13 -31 -24 -14 -4 7 -11 10 -15 6 -4 -4 -3 -12 3 -18 13 -13 6 -37 -15
-58 -7 -8 -11 -22 -9 -32 3 -10 -2 -20 -10 -23 -8 -3 -12 -10 -8 -15 3 -6 13
-7 22 -4 12 5 14 3 8 -7 -5 -9 -4 -11 3 -6 7 4 20 2 29 -3 10 -6 15 -11 11
-11 -4 0 0 -12 7 -27 9 -17 11 -29 5 -31 -15 -5 -12 -22 4 -22 8 0 18 -4 21
-10 8 -13 -14 -52 -25 -45 -6 4 -7 -1 -3 -11 4 -11 2 -15 -4 -11 -6 4 -28 -2
-49 -12 -33 -16 -36 -21 -21 -27 28 -10 -1 -25 -35 -18 -16 3 -28 1 -28 -4 0
-5 -11 -14 -25 -20 -21 -10 -25 -9 -25 3 0 8 5 15 11 15 8 0 8 5 -1 15 -9 11
-9 15 -1 15 9 0 9 5 1 20 -6 11 -16 20 -23 19 -9 0 -9 -2 1 -6 6 -2 12 -11 12
-18 0 -15 -58 -26 -63 -12 -1 5 -14 7 -27 5 -23 -4 -24 -5 -5 -12 11 -4 28
-12 37 -17 10 -5 24 -6 33 -3 21 8 19 -2 -5 -26 -24 -24 -31 -25 -24 -5 4 8 2
15 -4 15 -21 0 -23 -35 -3 -49 36 -23 26 -46 -19 -48 -42 -2 -55 11 -20 20 11
3 20 1 20 -4 0 -4 7 -6 15 -3 31 12 -4 29 -59 28 -55 -1 -92 -13 -45 -15 17
-1 19 -3 7 -6 -10 -2 -18 -11 -18 -20 0 -8 -6 -13 -13 -10 -7 3 -21 -1 -32 -9
-14 -10 -15 -14 -4 -14 12 0 12 -2 -1 -10 -12 -7 -10 -12 9 -30 14 -11 21 -23
17 -27 -3 -4 -15 3 -26 15 -24 26 -38 28 -47 6 -3 -8 -15 -14 -27 -13 -37 2
-39 0 -15 -21 13 -10 18 -19 12 -20 -7 0 -13 5 -13 10 0 7 -6 7 -19 1 -10 -6
-21 -8 -23 -6 -11 12 0 -66 12 -80 9 -11 9 -15 1 -15 -7 0 -9 -5 -6 -10 4 -6
12 -9 18 -8 7 1 26 -5 43 -15 31 -16 32 -16 37 5 4 12 2 27 -4 34 -6 7 -6 21
1 38 8 23 14 26 42 21 40 -7 55 -20 34 -28 -8 -3 -18 -2 -21 3 -4 6 -15 10
-27 10 -18 0 -19 -4 -14 -32 4 -18 8 -41 9 -50 1 -10 9 -18 19 -18 10 0 17 3
17 8 -4 22 3 32 22 32 17 0 20 5 16 21 -4 15 -2 19 9 15 8 -3 14 -2 14 3 0 4
13 8 30 8 16 0 27 -4 24 -9 -3 -4 -11 -8 -18 -8 -8 0 -16 -10 -19 -22 -4 -12
-9 -19 -13 -15 -12 12 -73 -43 -69 -64 2 -10 -1 -19 -7 -19 -6 0 -8 -3 -5 -6
8 -9 38 16 32 26 -12 19 41 45 84 41 22 -2 -7 -31 -31 -31 -11 0 -31 -14 -45
-30 -13 -17 -29 -28 -34 -24 -5 3 -9 0 -9 -5 0 -6 5 -11 10 -11 6 0 10 -9 10
-20 0 -12 7 -20 18 -21 14 0 14 -2 -3 -9 -11 -5 -27 -9 -35 -9 -13 -1 -13 0 0
9 12 8 11 10 -7 10 -13 0 -23 -5 -23 -12 0 -9 -3 -8 -12 1 -10 11 -10 14 0 18
23 9 12 19 -20 21 -18 1 -57 4 -85 8 -50 6 -53 5 -53 -16 0 -17 -4 -20 -21
-15 -14 5 -25 2 -30 -6 -7 -11 -9 -10 -9 4 0 9 7 17 15 17 9 0 15 9 15 23 -1
21 -1 22 -15 3 -8 -11 -15 -14 -15 -8 0 7 -5 12 -11 12 -6 0 -9 -6 -6 -12 3
-9 -7 -14 -30 -15 -20 -1 -41 -10 -50 -20 -12 -15 -14 -15 -9 -1 3 9 -2 19
-10 22 -24 9 -44 7 -44 -5 0 -5 4 -8 8 -5 4 2 14 1 21 -3 11 -7 10 -13 -3 -34
-11 -17 -14 -27 -7 -32 16 -10 13 -23 -6 -28 -17 -4 -17 -5 0 -6 21 -1 22 -24
3 -41 -18 -14 -17 -100 0 -100 6 0 18 -8 25 -17 8 -9 9 -14 2 -10 -18 11 -93
16 -93 6 0 -5 7 -9 15 -9 8 0 15 -9 15 -20 0 -15 -9 -21 -40 -26 -37 -6 -39
-8 -23 -21 10 -8 13 -12 7 -9 -13 6 -50 -31 -41 -40 4 -4 13 -1 22 6 9 7 19
10 22 6 4 -4 2 -11 -6 -15 -7 -5 -12 -12 -11 -17 0 -5 -8 -10 -19 -12 -22 -4
-37 -32 -22 -41 12 -8 2 -26 -19 -34 -10 -4 -8 -6 8 -6 13 -1 22 -7 22 -17 0
-11 -6 -15 -20 -11 -24 6 -27 -8 -3 -17 9 -4 20 -1 24 6 7 10 11 10 21 0 11
-11 8 -17 -12 -33 -14 -10 -36 -22 -50 -25 -14 -4 -30 -11 -37 -16 -8 -7 -18
-5 -28 6 -9 9 -25 16 -36 16 -10 0 -19 5 -19 10 0 6 5 10 10 10 6 0 10 5 10
10 0 6 -10 10 -22 10 -12 0 -18 -3 -15 -7 4 -3 2 -12 -4 -19 -11 -13 -10 -14
39 -40 l27 -14 -29 0 c-16 0 -26 3 -23 7 4 3 -5 12 -19 20 -32 16 -48 17 -38
2 4 -8 0 -9 -15 -4 -13 4 -21 2 -21 -5 0 -7 -6 -5 -16 4 -14 15 -54 23 -54 11
0 -3 11 -10 25 -15 38 -14 30 -25 -18 -24 -61 2 -63 2 -64 24 -1 13 4 20 15
20 15 0 15 2 2 10 -10 6 -16 6 -18 0 -2 -6 -8 -8 -12 -5 -11 7 -33 -32 -25
-45 3 -6 -1 -7 -10 -4 -14 6 -14 9 0 30 19 30 19 40 -1 48 -11 4 -15 2 -11 -8
5 -11 -2 -13 -31 -10 -42 5 -45 7 -49 36 -2 12 -8 27 -14 35 -6 7 -8 13 -4 13
4 0 1 8 -6 17 -12 15 -12 16 3 10 10 -3 20 -2 23 4 4 5 -1 12 -9 15 -9 3 -16
11 -16 18 0 15 -60 18 -78 4 -16 -13 -34 6 -25 28 2 6 -1 15 -6 19 -17 10 -3
25 24 25 18 0 23 4 18 16 -5 13 -2 15 18 9 21 -7 22 -6 10 9 -9 11 -10 16 -2
16 7 0 9 5 6 10 -10 15 -35 12 -35 -5 0 -16 -37 -21 -56 -7 -18 12 -12 52 8
52 10 0 18 5 18 10 0 6 -6 10 -12 9 -38 -5 -58 2 -58 20 0 14 -6 17 -23 14
-14 -3 -29 2 -37 12 -13 16 -12 17 18 11 21 -5 32 -4 32 3 0 6 -4 11 -10 11
-5 0 -10 7 -10 15 0 18 -17 20 -23 3 -2 -7 -7 -10 -11 -7 -13 12 7 40 27 37
11 -2 22 3 25 11 3 10 0 12 -11 8 -9 -3 -21 1 -27 9 -10 12 -7 14 21 15 19 1
26 3 16 6 -11 3 -16 11 -13 18 3 9 0 12 -9 9 -21 -8 -34 4 -28 26 4 15 11 18
29 14 31 -8 33 22 2 32 l-21 6 23 18 c22 16 20 48 -2 34 -6 -4 -6 2 1 15 7 11
16 21 21 21 6 0 10 7 10 15 0 8 7 15 16 15 8 0 13 4 9 9 -3 5 0 13 6 17 8 4 7
9 -2 15 -12 8 -12 10 0 18 8 5 10 14 5 22 -5 8 -7 22 -5 32 1 10 -5 27 -14 37
-11 12 -13 20 -6 25 18 10 12 33 -9 40 -11 3 -20 11 -20 16 0 6 7 6 18 1 9 -5
25 -6 35 -3 17 6 16 8 -6 20 -14 7 -30 10 -36 7 -19 -12 -12 13 11 36 18 18
18 20 3 15 -14 -6 -16 -5 -6 6 9 11 8 17 -3 26 -15 13 -11 41 6 41 5 0 6 -4 3
-10 -3 -5 0 -10 8 -10 8 0 17 9 20 20 3 11 2 18 -2 16 -3 -2 -15 3 -26 11 -20
15 -20 15 2 10 14 -3 28 2 39 14 10 11 12 19 6 19 -7 0 -12 -4 -12 -10 0 -5
-7 -10 -15 -10 -8 0 -15 5 -15 10 0 6 3 10 8 10 4 0 7 11 7 25 0 23 -3 25 -25
20 -14 -3 -30 -12 -35 -20 -8 -10 -16 -10 -30 -3 -14 8 -21 7 -31 -7 -7 -9
-18 -14 -24 -10 -8 5 -6 11 6 19 16 12 15 14 -10 18 -27 5 -47 -7 -24 -15 21
-7 -11 -37 -39 -37 -21 0 -23 3 -17 23 4 12 12 25 18 29 7 5 5 9 -4 12 -22 6
-50 4 -50 -5 0 -4 8 -10 18 -12 15 -4 15 -5 -1 -6 -10 0 -17 -7 -14 -13 2 -7
-3 -18 -12 -25 -19 -15 -51 -17 -51 -3 0 6 11 10 25 10 20 0 25 5 25 25 0 14
-7 28 -15 31 -22 9 -18 23 4 17 17 -4 20 0 19 29 0 19 -9 43 -21 56 -11 12
-17 22 -12 22 4 0 14 -8 21 -17 12 -18 64 -26 64 -11 0 7 -15 12 -32 9 -4 0
-12 8 -18 19 -6 11 -17 20 -24 20 -8 0 -26 6 -41 14 -27 14 -27 14 -4 18 26 3
38 34 17 41 -7 2 -3 2 10 0 19 -3 26 3 35 26 6 18 21 32 35 36 19 5 22 8 12
20 -10 12 -8 17 11 24 13 5 20 10 16 10 -5 1 -1 8 8 17 15 15 13 19 -16 45
-18 16 -29 29 -25 29 3 0 2 9 -4 20 -6 11 -15 18 -20 15 -5 -3 -11 -1 -15 5
-3 5 0 10 7 10 10 0 9 3 -2 9 -8 6 -18 7 -23 4 -5 -3 -7 0 -5 8 3 8 -2 22 -10
32 -22 25 0 47 23 23 23 -23 38 -20 25 4 -6 11 -17 20 -25 20 -22 0 -19 40 3
40 13 1 11 6 -12 26 -16 14 -23 25 -15 24 8 -1 23 -2 34 -1 15 1 12 5 -13 16
-26 11 -37 12 -52 3 -16 -10 -23 -9 -40 10 l-21 23 25 -7 c15 -3 26 -2 26 4 0
5 -12 13 -26 16 -20 5 -24 10 -16 18 7 7 8 17 2 29 -7 11 -7 20 0 24 16 10 12
25 -7 25 -16 0 -16 2 -3 10 11 8 6 10 -20 8 -24 -2 -34 -7 -32 -17 2 -11 0
-12 -10 -3 -18 15 -56 4 -63 -17 -3 -10 -15 -22 -28 -27 -12 -6 -16 -9 -10 -7
17 3 37 -34 23 -42 -5 -3 -15 -3 -21 1 -6 3 -15 1 -19 -7 -7 -10 -11 -10 -24
0 -16 13 -56 6 -56 -10 0 -5 -9 -9 -21 -9 -15 0 -19 4 -14 19 5 16 2 18 -15
14 -14 -4 -19 -11 -15 -22 5 -13 4 -14 -6 -3 -19 18 -42 15 -35 -4 4 -11 2
-15 -7 -11 -20 7 -48 -18 -41 -37 6 -17 34 -23 34 -7 0 5 9 11 21 14 16 4 18
3 9 -8 -8 -10 -6 -15 9 -20 21 -6 29 -25 11 -25 -5 0 -10 4 -10 8 0 5 -7 9
-15 9 -13 0 -13 -3 1 -18 14 -16 14 -18 -3 -27 -10 -6 -14 -14 -10 -18 4 -4
-5 -13 -20 -20 -17 -7 -21 -13 -12 -13 9 -1 19 -10 22 -21 6 -22 -9 -38 -16
-18 -2 7 -8 10 -12 6 -4 -4 3 -21 15 -37 l21 -31 -25 0 c-24 0 -25 -2 -14 -27
19 -42 59 -94 69 -87 5 3 9 -4 9 -15 0 -11 4 -22 8 -25 12 -7 35 11 28 22 -3
6 -2 13 4 17 6 4 8 11 5 16 -4 5 9 9 27 9 l33 -1 -27 -22 c-16 -13 -28 -27
-28 -31 0 -5 7 -3 15 4 12 10 21 10 40 2 30 -14 32 -28 4 -37 -16 -5 -18 -10
-8 -21 6 -7 16 -11 23 -8 6 3 0 -4 -13 -15 -23 -21 -41 -27 -41 -15 0 4 8 13
18 20 16 13 16 13 -3 14 -12 0 -25 -10 -32 -25 -9 -21 -8 -27 5 -36 14 -8 12
-9 -10 -6 -21 3 -25 1 -20 -12 3 -9 14 -25 24 -35 10 -11 18 -23 18 -28 0 -4
12 -8 28 -8 20 0 23 3 12 10 -8 5 -11 12 -8 16 12 11 78 15 78 5 0 -5 3 -16 6
-24 3 -9 -3 -17 -18 -21 -17 -4 -20 -8 -10 -14 12 -8 42 -57 42 -68 0 -2 -8
-4 -18 -4 -9 0 -23 -9 -30 -20 -10 -17 -10 -20 4 -20 18 0 44 -23 44 -39 0 -6
-6 -11 -13 -11 -8 0 -13 -10 -12 -22 1 -13 5 -22 8 -21 4 2 19 6 34 10 15 3
34 12 41 20 16 16 38 17 48 2 4 -7 0 -9 -13 -5 -28 9 -49 -17 -28 -34 8 -7 12
-17 8 -24 -4 -6 -8 -14 -8 -18 0 -5 -3 -8 -7 -8 -5 0 -11 0 -14 0 -4 0 -1 7 6
15 17 21 4 32 -20 17 -12 -7 -20 -8 -20 -2 0 5 -4 10 -10 10 -5 0 -7 -7 -4
-15 4 -8 12 -15 19 -15 7 0 15 -6 18 -14 3 -7 24 -16 47 -20 23 -4 38 -11 35
-16 -4 -6 -10 -8 -14 -6 -4 3 -13 -10 -20 -27 -8 -18 -19 -37 -27 -43 -8 -7
-9 -15 -3 -25 7 -11 11 -11 17 -1 6 9 15 10 33 3 l24 -10 -28 0 c-24 -1 -27
-4 -22 -22 5 -14 2 -25 -6 -30 -12 -8 -11 -12 2 -22 16 -12 17 -27 4 -59 -5
-12 -3 -18 6 -18 10 0 10 -3 1 -12 -16 -16 -15 -28 1 -28 9 0 13 -13 11 -42
-1 -24 3 -49 9 -57 7 -7 12 -21 12 -29 0 -9 10 -19 23 -22 l23 -5 -20 -21
c-11 -12 -17 -25 -14 -28 4 -3 1 -6 -5 -6 -22 0 -12 -20 11 -21 15 -1 10 -5
-18 -14 -35 -12 -34 -20 3 -16 6 1 12 -3 12 -9 0 -8 -52 -15 -85 -11 -5 1 -1
-5 9 -14 10 -8 23 -12 27 -9 5 3 9 0 9 -6 0 -6 -7 -13 -15 -16 -12 -5 -13 -10
-4 -20 9 -11 4 -12 -27 -7 -27 4 -35 3 -30 -5 4 -7 13 -12 21 -12 16 0 57 -54
48 -64 -3 -3 8 -6 25 -6 25 0 32 -4 32 -20 0 -17 -7 -20 -42 -20 -41 1 -42 1
-19 14 l23 13 -23 6 c-13 4 -45 7 -71 7 -43 0 -48 3 -49 23 -1 15 -3 17 -6 6
-2 -10 -12 -19 -22 -22 -19 -5 -22 8 -8 31 6 9 -2 12 -30 13 -21 0 -33 3 -26
5 13 6 6 34 -8 34 -29 0 -74 67 -70 103 1 9 -3 17 -9 17 -7 0 -10 6 -7 13 3 7
-5 13 -19 13 -15 1 -21 -3 -17 -12 3 -8 0 -14 -7 -14 -8 0 -11 11 -8 30 3 19
0 30 -8 30 -14 0 -25 -48 -12 -56 4 -3 6 -10 3 -15 -4 -5 2 -9 13 -9 32 0 34
-13 5 -26 l-28 -12 25 -1 c20 -1 22 -3 10 -11 -13 -9 -13 -12 3 -21 14 -8 16
-14 6 -25 -8 -10 -8 -14 0 -14 15 0 14 -27 -1 -33 -8 -3 -5 -6 5 -6 11 -1 17
-7 14 -13 -7 -20 13 -50 29 -44 20 8 18 -11 -3 -22 -11 -6 -14 -16 -9 -28 6
-15 9 -16 15 -5 15 23 28 4 25 -35 -3 -29 1 -41 17 -52 13 -9 19 -21 16 -33
-3 -12 2 -20 14 -24 20 -7 27 -25 9 -25 -5 0 -7 -7 -4 -15 4 -8 14 -15 24 -15
21 0 35 -51 17 -62 -8 -5 -7 -8 4 -8 16 0 39 -39 39 -64 0 -8 8 -16 19 -19 10
-2 25 -17 32 -33 9 -17 27 -33 45 -39 17 -5 29 -15 27 -22 -2 -6 5 -14 16 -18
23 -7 49 -45 31 -45 -5 0 -10 -5 -10 -11 0 -6 8 -8 19 -4 15 5 18 1 13 -20 -2
-15 0 -25 7 -25 6 0 11 6 11 12 0 7 11 1 25 -14 25 -27 31 -39 19 -37 -4 0
-10 -3 -13 -8 -3 -5 -18 -14 -33 -20 -17 -8 -28 -20 -28 -32 0 -11 -6 -22 -12
-24 -10 -4 -10 -6 0 -6 6 -1 12 -9 12 -19 0 -11 7 -18 20 -18 11 0 20 4 20 8
0 4 5 8 11 8 5 0 8 -4 4 -9 -3 -5 -1 -12 5 -16 5 -3 10 -3 10 2 0 12 60 8 93
-5 16 -7 34 -12 40 -12 7 0 24 -8 37 -17 14 -10 36 -16 49 -14 22 3 23 1 12
-13 -12 -14 -10 -16 10 -18 13 0 36 0 52 1 33 3 35 -6 5 -19 -21 -8 -20 -9 9
-9 31 -1 80 -23 135 -62 14 -11 35 -19 45 -19 10 0 23 -4 28 -9 21 -19 103
-39 114 -28 8 8 16 4 31 -13 18 -20 23 -22 30 -10 7 10 10 11 10 3 0 -14 36
-18 44 -5 6 9 76 3 76 -7 0 -9 64 -7 71 3 11 15 62 9 75 -9 12 -16 14 -16 29
-1 9 9 13 20 10 26 -4 6 5 10 20 10 15 0 24 -4 20 -10 -3 -5 3 -10 14 -10 12
0 21 5 21 11 0 6 13 -2 29 -17 31 -31 38 -87 12 -103 -8 -5 -10 -14 -6 -21 5
-9 4 -11 -4 -6 -9 6 -10 0 -5 -19 6 -24 4 -26 -14 -21 -15 5 -27 1 -39 -13
-10 -12 -25 -21 -34 -21 -10 0 -27 -12 -38 -26 -14 -18 -26 -24 -40 -19 -27 8
-34 -8 -10 -23 14 -9 19 -9 19 -1 0 8 5 8 15 -1 12 -10 13 -16 4 -26 -9 -11
-7 -14 10 -14 29 0 28 -34 -2 -59 -12 -11 -33 -29 -46 -40 -13 -12 -28 -21
-33 -21 -5 0 -6 -5 -2 -12 4 -7 3 -8 -4 -4 -6 4 -20 -2 -32 -14 -21 -21 -40
-26 -40 -10 0 18 -18 11 -25 -10 -4 -13 -15 -20 -32 -20 -18 0 -24 -4 -19 -15
3 -8 0 -16 -7 -17 -7 0 -16 -2 -22 -3 -5 -2 -17 -3 -26 -4 -11 -1 -15 -10 -13
-32 2 -23 -1 -29 -13 -25 -8 3 -19 6 -24 6 -4 0 -6 7 -3 15 4 10 0 15 -15 15
-12 0 -21 -6 -21 -15 0 -8 -7 -15 -15 -15 -18 0 -20 20 -2 21 14 1 -22 17 -41
18 -8 1 -10 -4 -6 -11 5 -8 2 -9 -10 -5 -24 9 -56 -14 -56 -41 0 -13 -11 -34
-25 -48 -27 -27 -33 -53 -12 -55 6 0 -3 -7 -21 -15 -18 -8 -37 -12 -42 -9 -8
5 -41 -18 -73 -51 -6 -5 -24 -8 -40 -6 -25 4 -29 2 -24 -12 4 -9 2 -16 -3 -16
-5 0 -7 -7 -4 -15 4 -8 1 -15 -6 -15 -6 0 -9 4 -6 8 2 4 1 14 -5 22 -6 10 -9
11 -9 3 0 -7 -9 -13 -20 -13 -11 0 -23 -6 -26 -14 -8 -20 -36 -29 -45 -14 -6
9 -12 8 -27 -5 -13 -12 -21 -14 -29 -6 -9 9 -16 7 -28 -5 -21 -21 -28 -20 -45
4 -8 11 -25 20 -38 20 -13 0 -20 4 -17 10 3 6 3 10 -2 11 -29 3 -47 9 -55 21
-7 10 -11 9 -19 -4 -5 -10 -17 -18 -24 -18 -8 0 -15 -5 -15 -11 0 -6 -9 -9
-19 -6 -20 5 -36 -16 -26 -33 3 -5 -4 -12 -16 -15 -19 -6 -19 -8 -4 -25 15
-17 15 -18 -2 -16 -13 1 -18 -6 -18 -24 0 -24 -20 -49 -39 -50 -6 0 -1 6 9 14
17 12 15 14 -26 21 -24 4 -47 13 -51 19 -5 7 -8 5 -8 -6 0 -9 5 -20 10 -23 6
-3 10 -11 10 -16 0 -5 -10 0 -22 11 -13 12 -23 28 -23 38 0 11 -9 17 -31 18
-16 1 -46 10 -65 20 -45 23 -68 25 -89 4 -11 -11 -28 -15 -59 -12 -31 3 -42 1
-37 -7 4 -6 3 -11 -3 -11 -5 0 -11 11 -13 25 -2 14 -7 27 -13 28 -5 1 -20 12
-33 23 -20 19 -27 21 -54 10 -24 -8 -32 -8 -35 2 -8 20 -45 15 -41 -6 2 -11
-1 -19 -7 -20 -5 0 -9 8 -8 19 3 23 -10 25 -27 4 -8 -10 -17 -12 -24 -6 -7 6
-17 6 -26 0 -13 -8 -12 -12 4 -24 11 -8 17 -15 13 -15 -9 0 -50 23 -57 32 -10
13 -60 21 -60 9 0 -7 -8 -8 -25 -1 -14 5 -25 7 -25 4 0 -4 -7 -1 -16 7 -13 10
-17 10 -24 -1 -7 -11 -11 -11 -23 -1 -10 8 -17 9 -22 1 -4 -7 -12 -7 -24 0
-10 5 -22 6 -26 2 -5 -4 -5 1 -2 11 8 22 -9 22 -23 0 -10 -16 -10 -15 -5 3 5
18 0 23 -30 28 -19 4 -40 4 -46 1 -14 -9 -39 14 -32 31 3 8 1 14 -3 14 -5 0
-17 7 -27 14 -15 12 -17 18 -7 36 10 19 9 21 -7 20 -33 -4 -37 0 -17 14 17 13
15 14 -22 9 -29 -4 -45 -1 -57 11 -9 10 -18 12 -22 6 -11 -17 -37 -11 -42 10
-3 11 -10 20 -15 20 -5 0 -6 5 -3 10 4 6 3 10 -2 9 -4 -1 -27 -1 -50 0 -33 1
-41 4 -37 16 4 10 0 15 -15 15 -12 0 -25 8 -28 18 -4 9 -14 22 -22 29 -14 11
-14 12 3 13 18 0 14 14 -5 16 -22 3 -23 5 -10 13 17 11 6 31 -18 31 -13 0 -17
7 -15 33 2 25 -4 38 -31 64 -23 21 -41 30 -55 26 -11 -3 -31 2 -45 11 -18 12
-30 13 -49 6 -19 -7 -24 -6 -20 3 2 7 -5 18 -15 24 -16 10 -23 10 -35 -2 -21
-21 -28 -18 -14 5 9 15 20 19 36 15 16 -4 21 -2 17 6 -5 7 -21 9 -41 6 -20 -3
-34 -2 -34 4 0 6 -9 7 -22 3 -22 -6 -22 -6 2 15 14 13 18 19 10 15 -29 -16
-49 -14 -55 6 -3 10 -15 22 -26 25 -11 4 -18 9 -15 13 3 3 -3 11 -14 19 -11 8
-20 20 -20 27 0 8 -10 17 -22 21 -14 4 -18 8 -10 12 18 7 15 23 -5 23 -10 0
-25 5 -33 10 -13 9 -13 12 3 21 20 12 23 34 3 26 -8 -3 -30 3 -50 14 -21 11
-41 17 -46 14 -6 -4 -10 -3 -11 2 -3 32 -11 58 -19 61 -5 2 -7 11 -4 20 5 16
5 16 -5 0 -8 -11 -8 -25 -1 -42 5 -14 6 -26 2 -26 -12 0 -33 40 -27 50 4 6 -2
10 -11 10 -14 0 -15 3 -6 12 7 7 12 27 12 45 0 18 5 33 11 33 6 0 9 6 6 14 -3
7 0 19 6 25 9 9 8 15 -5 22 -10 6 -18 15 -18 20 0 13 -25 39 -38 39 -5 0 -9
14 -9 30 0 17 -8 39 -18 48 -17 16 -17 16 -12 0 8 -22 0 -23 -20 -2 -13 13
-14 20 -5 35 11 17 9 19 -15 19 -27 0 -72 20 -45 20 6 0 12 4 12 9 0 5 -22 8
-49 7 -43 -2 -51 1 -60 20 -7 17 -6 25 5 34 8 7 14 18 14 26 0 7 9 16 20 19
11 3 20 11 20 16 0 5 7 9 15 9 8 0 15 7 15 15 0 8 6 15 13 15 7 0 24 11 39 25
15 14 32 25 38 25 6 0 13 6 16 14 3 8 24 27 46 41 23 15 66 48 96 72 73 60
117 74 177 59 11 -2 33 -5 49 -5 25 -1 27 -3 15 -18 -12 -14 -12 -16 2 -11 15
6 93 -34 84 -44 -3 -3 14 -11 37 -18 24 -7 47 -17 53 -22 5 -4 21 -8 35 -8 28
0 70 -25 70 -41 0 -6 -6 -7 -12 -4 -7 4 -4 -1 6 -9 11 -9 26 -16 33 -16 7 0
13 -9 13 -19 0 -22 27 -54 42 -49 5 2 8 7 6 11 -2 4 9 14 24 21 35 18 88 30
88 19 0 -4 14 -14 30 -22 24 -10 34 -10 45 -1 11 9 21 8 45 -6 16 -10 30 -21
30 -25 0 -4 16 -2 36 4 32 10 38 9 50 -7 7 -11 11 -23 8 -27 -3 -5 2 -9 11 -9
9 0 14 4 11 9 -7 11 34 2 51 -12 7 -5 21 -6 30 -2 30 12 98 13 105 2 5 -8 13
-5 27 7 18 17 19 17 24 -1 4 -15 5 -15 6 -1 1 17 32 24 120 27 25 1 51 7 58
13 7 6 13 7 13 3 0 -5 9 0 20 10 19 17 20 17 20 -1 0 -11 3 -15 8 -8 7 11 52
38 64 39 3 0 9 3 13 7 4 4 13 4 20 1 20 -7 32 64 15 90 -10 17 -10 19 4 14 9
-4 16 -3 16 2 0 11 -48 23 -60 16 -6 -4 -10 5 -10 19 0 16 -6 26 -15 26 -8 0
-15 5 -15 10 0 6 -11 10 -25 10 -14 0 -25 4 -25 10 0 17 -34 50 -52 50 -10 0
-18 5 -18 10 0 6 -7 10 -16 10 -11 0 -15 6 -11 20 3 12 0 20 -8 20 -7 0 -29
14 -50 30 -21 17 -34 30 -30 30 5 0 -2 9 -14 19 -13 11 -20 24 -17 30 3 5 1
11 -5 13 -7 2 -13 33 -14 75 -3 69 -2 72 28 100 18 15 38 26 45 25 6 -2 12 1
12 5 0 9 37 16 80 15 44 0 90 9 90 18 0 5 -6 15 -14 22 -7 8 -16 23 -20 35 -4
12 -23 33 -42 48 -20 15 -51 42 -69 61 -19 19 -45 34 -57 35 -13 0 -17 3 -10
6 10 4 9 9 -4 24 -9 10 -23 19 -30 19 -7 0 -14 5 -16 11 -2 5 -16 12 -31 13
-31 4 -107 75 -107 101 0 8 -9 15 -20 15 -11 0 -20 7 -20 16 0 11 -6 14 -20 9
-21 -7 -60 13 -90 44 -23 25 -57 41 -84 41 -14 0 -28 5 -32 11 -3 6 -17 8 -31
4 -20 -5 -24 -3 -20 9 5 12 0 16 -22 16 -16 0 -34 7 -41 15 -7 9 -18 14 -25
11 -30 -11 -3 113 51 232 13 29 24 55 24 58 0 3 14 25 30 49 33 48 36 61 18
68 -7 2 4 7 25 11 35 6 41 14 38 43 -1 6 3 14 9 18 5 3 10 15 10 26 0 10 4 19
9 19 11 0 3 39 -12 58 -6 8 -6 12 1 12 6 0 9 7 6 15 -4 11 -2 13 9 10 11 -5
15 1 15 21 0 15 9 35 24 48 13 11 22 29 20 39 -2 9 0 17 4 17 4 0 13 -8 20
-17 7 -10 14 -13 14 -6 0 6 9 9 19 6 21 -5 35 -40 20 -49 -5 -3 -6 -11 -2 -17
4 -7 8 -34 9 -60 1 -27 6 -53 13 -60 14 -14 14 -44 -1 -53 -8 -5 -9 -2 -5 9 8
21 -6 22 -22 3 -9 -11 -9 -15 1 -19 9 -3 5 -12 -13 -29 -26 -23 -26 -24 -9
-46 10 -12 24 -22 32 -22 8 -1 6 -6 -6 -15 -11 -8 -15 -15 -10 -15 5 0 10 -24
10 -54 1 -30 8 -70 17 -88 16 -33 17 -81 4 -95 -12 -11 -8 -21 11 -26 16 -4
16 -5 0 -6 -11 -1 -18 -9 -18 -21 0 -27 11 -25 44 5 15 14 24 25 20 25 -3 0
-1 7 6 15 7 8 9 15 4 15 -5 0 -9 14 -10 31 -1 17 2 26 5 20 5 -7 13 -4 23 8 9
11 13 22 10 26 -4 3 0 10 8 16 11 7 12 11 3 17 -14 9 -2 77 16 95 6 6 11 19
11 28 0 10 5 19 11 21 5 2 11 10 12 18 1 8 10 26 20 40 9 13 17 30 17 37 0 7
4 13 9 13 5 0 13 12 19 28 5 15 19 37 31 49 12 12 21 29 21 38 0 8 7 15 15 15
8 0 15 7 15 15 0 8 5 15 11 15 6 0 8 9 4 20 -3 11 -3 20 2 20 8 0 57 67 59 82
1 4 3 10 4 13 1 3 3 8 4 13 4 23 35 52 50 46 11 -4 16 -1 16 10 0 9 7 16 15
16 8 0 15 6 15 14 0 23 22 31 35 13 7 -9 15 -14 18 -10 4 3 7 1 7 -5 0 -7 -7
-12 -16 -12 -9 0 -12 -5 -8 -12 13 -21 10 -62 -5 -80 -20 -23 -24 -60 -9 -71
10 -7 10 -10 1 -14 -7 -2 -13 -12 -13 -20 0 -9 -6 -13 -15 -10 -11 5 -13 0 -9
-23 4 -19 2 -30 -7 -33 -8 -2 0 -2 16 0 26 3 27 2 12 -7 -17 -11 -17 -13 -2
-30 13 -15 14 -22 4 -38 -18 -28 -6 -49 28 -47 18 2 20 1 5 -2 -13 -3 -27 -15
-33 -29 -12 -33 -12 -34 6 -28 8 4 15 12 15 20 0 8 5 14 11 14 5 0 8 -4 4 -9
-3 -5 -1 -12 4 -15 5 -3 8 -30 8 -59 -2 -46 0 -52 17 -49 13 2 16 0 10 -10
-15 -23 -13 -38 4 -39 16 0 16 -1 0 -7 -14 -6 -15 -10 -3 -25 14 -19 55 -16
55 4 0 5 9 9 20 9 22 0 24 8 10 44 -6 16 -6 27 1 31 5 4 7 11 4 16 -9 14 -17
50 -21 92 -1 20 -6 42 -10 48 -4 8 1 9 15 4 24 -7 29 10 5 19 -10 4 -13 13 -9
26 5 15 2 20 -12 20 -17 1 -17 1 0 14 10 8 14 17 8 20 -12 8 -9 30 8 50 10 12
11 16 1 16 -8 0 -11 9 -7 29 3 16 3 32 0 35 -4 4 -7 21 -8 39 0 17 -3 37 -6
42 -3 6 -5 27 -4 48 0 42 -12 49 -21 12 -6 -25 -24 -35 -24 -14 0 5 -4 7 -10
4 -18 -11 -11 6 13 31 12 13 28 24 35 24 10 0 12 9 7 33 -6 31 -5 31 11 12 14
-17 16 -17 11 -2 -4 11 -1 20 8 23 8 4 15 9 15 13 0 11 -33 10 -48 -2 -10 -8
-16 -7 -22 4 -6 9 -4 16 6 19 9 3 16 10 17 15 1 6 5 9 10 8 4 -2 7 3 7 11 0
20 32 45 37 29 6 -18 23 -16 23 2 0 9 7 18 15 21 8 4 13 10 10 14 -10 16 22
29 63 25 38 -3 41 -2 32 15 -13 24 -13 30 1 30 5 0 7 -4 4 -10 -3 -5 3 -10 15
-10 16 0 21 5 18 23 -2 16 2 22 15 21 10 -1 17 5 17 17 0 10 4 20 9 23 5 3 7
15 4 25 -3 10 0 28 6 38 7 14 6 27 -5 48 -11 21 -11 30 -3 35 8 6 8 9 0 15 -9
5 -9 10 -1 20 6 8 12 27 12 44 1 21 7 33 20 36 20 7 25 35 6 35 -7 0 -5 5 5
11 15 9 16 13 6 26 -8 9 -9 17 -3 21 6 4 13 15 17 25 3 9 13 17 22 17 8 0 15
4 15 10 0 5 6 7 14 4 7 -3 16 2 20 11 3 9 11 13 17 9 7 -4 9 -3 5 4 -7 12 13
62 26 62 17 0 7 36 -13 49 -16 9 -24 10 -29 1 -4 -6 -11 -10 -16 -9 -23 5 -89
-43 -77 -55 4 -3 14 -6 23 -6 10 0 23 -7 31 -16 11 -13 9 -14 -13 -9 -15 4
-29 2 -32 -4 -4 -6 -1 -11 6 -11 13 -1 -60 -30 -74 -30 -5 0 -8 7 -8 15 0 8
-4 15 -10 15 -5 0 -9 -3 -9 -7 1 -5 1 -17 0 -28 -1 -18 -2 -19 -12 -2 -5 9 -7
23 -4 30 4 6 -6 -3 -22 -21 -34 -39 -45 -40 -63 -7 -17 31 -36 32 -44 3 -9
-36 -7 -41 9 -28 11 9 15 9 15 1 0 -20 -30 -24 -49 -7 -17 15 -19 15 -25 1 -3
-9 1 -18 9 -21 22 -9 18 -23 -5 -17 -11 3 -20 0 -20 -6 0 -15 -47 -14 -54 2
-5 9 -7 9 -12 -1 -3 -6 -10 -10 -15 -6 -5 3 -9 -2 -9 -10 0 -8 5 -18 10 -21 6
-3 10 -11 10 -16 0 -6 -4 -8 -9 -5 -13 8 -61 -11 -61 -24 0 -5 16 -10 35 -10
19 0 35 5 35 10 0 6 10 10 23 10 16 0 18 -3 8 -9 -9 -6 -10 -11 -2 -15 6 -4
16 -4 21 -1 6 3 10 1 10 -4 0 -11 -34 -16 -80 -12 -14 1 -30 -5 -37 -15 -12
-17 -13 -16 -13 3 0 13 -8 23 -22 27 -23 6 -23 7 -3 21 19 15 19 16 -3 22 -17
4 -20 8 -11 14 8 5 16 3 21 -3 5 -9 13 -9 32 0 29 13 34 37 10 46 -8 3 -12 2
-9 -4 3 -6 -3 -10 -14 -10 -10 0 -26 -3 -35 -6 -11 -4 -16 0 -16 12 0 15 -2
16 -9 5 -5 -8 -11 -9 -15 -3 -3 6 0 12 6 15 9 3 10 8 3 15 -8 8 -18 7 -39 -3
-16 -8 -40 -15 -55 -14 -16 0 -20 3 -11 6 21 8 59 51 52 58 -4 3 2 3 12 -1 13
-5 17 -4 13 3 -4 6 0 16 8 23 8 7 18 30 21 51 6 34 8 37 26 28 26 -14 38 -1
13 14 -11 6 -24 12 -29 12 -12 0 -21 25 -9 25 5 0 18 -7 29 -15 25 -19 40 -19
24 0 -7 8 -19 15 -26 15 -8 0 -14 4 -14 9 0 5 -19 7 -42 5 -24 -2 -35 -1 -26
2 20 6 13 34 -8 34 -9 0 -14 11 -14 28 0 20 -3 23 -9 12 -6 -8 -8 -17 -5 -22
3 -4 -7 -15 -20 -24 -24 -15 -27 -15 -42 0 -9 10 -19 14 -22 11 -3 -3 0 -11 6
-17 18 -18 15 -31 -5 -24 -17 6 -17 5 0 -8 26 -20 21 -28 -14 -21 -28 6 -30 5
-24 -14 4 -14 2 -21 -7 -22 -7 0 -25 -2 -40 -4 -16 -2 -28 -1 -28 3 0 15 -120
4 -136 -12 -22 -23 -37 -20 -24 4 9 16 8 22 -4 26 -8 3 -20 22 -27 42 -7 21
-14 31 -16 25 -7 -19 -23 -16 -23 5 -1 23 -24 52 -42 52 -9 0 -18 9 -21 20 -3
11 -1 20 5 20 5 0 6 5 3 10 -4 6 -12 10 -18 9 -28 -3 -37 3 -58 41 -17 30 -29
40 -48 41 -14 0 -20 3 -13 6 10 4 9 9 -4 24 -9 10 -12 19 -6 19 6 0 13 -6 15
-12 3 -7 6 1 6 19 1 17 -4 35 -9 38 -6 4 -7 12 -3 18 4 7 8 28 8 49 l0 36 -52
-5 c-78 -8 -91 9 -137 188 -13 53 -29 105 -34 115 -19 38 -50 110 -57 134 -4
14 -16 38 -27 53 -11 15 -17 34 -14 42 2 7 1 15 -3 17 -17 6 -100 197 -126
287 -14 52 -31 103 -36 113 -29 55 -7 109 28 68 24 -27 31 -25 25 6 -7 38 15
27 44 -21 36 -62 284 -565 284 -577 0 -4 25 -59 55 -123 30 -63 55 -119 55
-122 0 -4 7 -14 16 -24 15 -16 17 -16 47 -1 18 10 33 20 35 24 5 12 110 40
122 33 6 -3 13 1 16 10 4 9 12 14 20 11 7 -3 26 -1 41 3 16 5 38 4 51 0 15 -6
21 -5 17 1 -5 9 18 15 29 8 2 -2 13 5 24 15 11 10 23 17 28 15 5 -1 31 8 58
20 28 13 60 25 73 28 13 4 20 11 16 17 -4 6 0 8 10 4 10 -4 18 1 22 14 5 15
16 19 51 19 32 0 56 8 82 25 20 14 42 25 49 25 7 0 13 4 13 9 0 5 8 11 17 13
23 4 24 46 1 54 -10 3 -18 9 -18 14 0 4 -9 10 -21 13 -12 3 -18 10 -15 15 3 6
-8 15 -24 21 -17 5 -30 17 -30 25 0 9 -11 18 -25 22 -13 3 -34 19 -47 34 -18
22 -28 27 -49 23 -15 -3 -30 0 -33 6 -4 6 0 11 8 11 9 0 16 5 16 10 0 6 -9 10
-20 10 -11 0 -20 5 -20 10 0 6 -8 10 -17 10 -12 1 -9 6 12 17 26 15 28 18 10
21 -27 5 -44 22 -22 22 23 0 21 21 -3 27 -13 4 -22 18 -28 47 -4 22 -4 44 0
47 9 6 -28 43 -52 52 -12 4 -11 6 3 6 18 1 25 41 7 41 -5 0 -10 -4 -10 -10 0
-5 -4 -10 -9 -10 -5 0 -8 8 -7 17 0 10 -3 18 -9 18 -5 0 -20 7 -32 16 l-23 16
25 13 c32 17 22 31 -15 20 -35 -10 -52 6 -26 25 15 12 15 13 -1 19 -10 4 -19
2 -21 -3 -2 -6 -8 -9 -12 -6 -15 9 1 35 20 35 25 0 50 10 50 20 0 5 -9 6 -20
3 -12 -3 -20 0 -20 6 0 7 5 9 10 6 6 -3 10 3 10 14 0 16 -6 21 -27 21 -25 0
-25 1 -10 18 10 10 17 23 17 29 0 6 9 22 20 36 18 23 19 27 4 41 -15 15 -11
21 11 16 6 -1 -1 10 -14 24 -13 14 -27 23 -31 21 -4 -3 -10 4 -13 15 -3 11
-16 24 -30 29 -29 11 -45 31 -25 31 8 0 9 3 3 8 -15 11 -15 24 0 80 7 29 11
52 8 52 -3 0 -1 6 4 13 17 23 16 87 -3 108 -12 14 -13 19 -4 19 9 0 7 7 -7 23
-11 12 -18 28 -16 35 3 6 0 12 -6 12 -6 0 -11 9 -11 19 0 10 -7 22 -16 25 -8
3 -13 10 -10 15 3 5 -1 11 -9 15 -8 3 -15 12 -15 19 0 8 -7 20 -15 27 -8 7
-12 17 -8 23 3 6 1 7 -5 3 -12 -7 -57 33 -57 52 0 7 -4 12 -8 12 -13 -1 -37
28 -37 44 0 9 6 16 13 16 8 0 7 4 -3 10 -12 8 -13 13 -3 29 11 17 10 22 -7 31
-10 6 -17 17 -14 24 3 8 1 17 -5 21 -6 3 -11 17 -11 31 0 16 -6 24 -17 24 -13
0 -14 3 -6 8 10 6 10 12 -2 28 -8 10 -15 26 -15 35 0 9 -7 20 -16 23 -8 3 -13
10 -10 15 9 13 -4 41 -18 41 -6 0 -12 9 -13 20 -2 25 -29 53 -43 45 -6 -4 -10
5 -10 19 0 23 -9 31 -32 27 -5 0 -8 5 -8 13 0 16 -21 26 -58 27 -15 0 -21 3
-14 6 20 8 15 33 -5 26 -12 -4 -9 1 7 15 16 14 20 21 11 22 -11 0 -10 3 3 13
14 10 19 28 20 65 1 29 -1 52 -5 52 -6 0 -12 15 -19 48 -1 4 -8 14 -16 23 -8
9 -14 20 -12 25 4 16 -13 54 -24 54 -5 0 -7 7 -4 15 3 9 -1 18 -9 21 -8 3 -17
21 -21 40 -4 24 -14 37 -35 46 -16 7 -29 19 -29 25 0 7 -3 13 -7 13 -5 0 -19
16 -32 35 -13 19 -30 35 -37 35 -8 0 -14 5 -14 10 0 6 -9 10 -19 10 -11 0 -21
6 -24 13 -3 9 -9 9 -29 -1 -14 -8 -34 -13 -44 -12 -43 5 -56 0 -50 -17 3 -10
-5 -5 -18 11 -13 16 -28 26 -33 23 -5 -3 -22 7 -37 24 -15 16 -34 29 -42 29
-8 0 -14 4 -14 9 0 5 -12 12 -27 16 -16 3 -39 14 -53 23 -14 9 -33 17 -43 17
-10 1 -30 14 -43 28 -14 15 -31 27 -39 27 -8 0 -15 5 -15 11 0 6 -7 9 -15 6
-8 -4 -17 -2 -20 3 -10 16 -25 11 -19 -5z m786 -827 c-7 -7 -12 -8 -12 -2 0
14 12 26 19 19 2 -3 -1 -11 -7 -17z m75 6 c-3 -3 -12 -4 -19 -1 -8 3 -5 6 6 6
11 1 17 -2 13 -5z m-567 -414 c0 -5 -4 -10 -10 -10 -5 0 -10 5 -10 10 0 6 5
10 10 10 6 0 10 -4 10 -10z m4063 -1136 c-3 -8 -12 -14 -20 -14 -9 0 -13 -6
-10 -14 9 -24 -4 -25 -29 -4 -17 16 -21 25 -13 34 6 7 16 11 24 8 7 -3 16 -1
19 5 10 15 36 2 29 -15z m-188 -4 c-3 -5 -11 -10 -16 -10 -6 0 -7 5 -4 10 3 6
11 10 16 10 6 0 7 -4 4 -10z m-2455 -600 c0 -5 -4 -10 -10 -10 -5 0 -10 5 -10
10 0 6 5 10 10 10 6 0 10 -4 10 -10z m-1251 -18 c23 2 39 -1 38 -7 -1 -5 8
-10 21 -9 15 0 21 -5 20 -15 -2 -12 8 -17 36 -21 33 -4 40 -9 41 -30 2 -30
-48 -84 -88 -94 -23 -5 -26 -10 -18 -20 9 -10 8 -15 -4 -20 -9 -3 -13 -10 -10
-16 3 -5 0 -10 -7 -10 -25 0 -90 -51 -84 -66 4 -10 -3 -14 -25 -14 -17 0 -28
-4 -25 -8 5 -9 -16 -30 -58 -57 -27 -18 -66 -12 -66 10 0 7 -10 22 -22 32 -23
18 -28 39 -15 59 4 7 0 17 -8 24 -9 7 -13 20 -11 29 3 9 -2 25 -10 36 -13 17
-16 18 -24 5 -8 -13 -11 -11 -16 7 -5 18 -16 22 -64 28 -36 4 -61 12 -64 21
-3 8 0 14 7 14 8 0 6 4 -3 10 -11 7 -11 10 -2 10 7 0 11 4 8 8 -11 19 112 90
134 77 5 -3 45 -1 88 6 42 7 94 12 114 11 21 0 40 4 44 9 4 6 11 6 20 -2 7 -6
31 -9 53 -7z m1291 8 c0 -5 -2 -10 -4 -10 -3 0 -8 5 -11 10 -3 6 -1 10 4 10 6
0 11 -4 11 -10z m-135 -840 c-27 -12 -43 -12 -25 0 8 5 22 9 30 9 10 0 8 -3
-5 -9z m-35 -35 c0 -8 -4 -15 -10 -15 -5 0 -10 7 -10 15 0 8 5 15 10 15 6 0
10 -7 10 -15z m337 -211 c-3 -3 -12 -4 -19 -1 -8 3 -5 6 6 6 11 1 17 -2 13 -5z
m2733 -18 c0 -3 -4 -8 -10 -11 -5 -3 -10 -1 -10 4 0 6 5 11 10 11 6 0 10 -2
10 -4z m-2940 -10 c0 -3 -4 -8 -10 -11 -5 -3 -10 -1 -10 4 0 6 5 11 10 11 6 0
10 -2 10 -4z m3022 -14 c-9 -7 -10 -15 -3 -35 6 -15 14 -27 18 -27 11 0 34
-51 27 -61 -3 -5 2 -9 11 -9 9 0 14 -4 10 -9 -3 -5 -1 -12 4 -16 5 -3 15 3 21
12 9 15 10 13 5 -12 -4 -16 -8 -37 -9 -45 -2 -8 -8 -15 -14 -15 -6 0 -14 -3
-18 -7 -4 -5 3 -8 15 -8 15 0 21 -4 17 -12 -3 -7 -9 -21 -12 -30 -4 -10 -11
-18 -16 -18 -5 0 -7 -4 -4 -9 3 -5 -1 -14 -9 -21 -22 -19 -18 -27 16 -34 18
-3 28 -10 24 -16 -4 -6 -1 -17 5 -25 8 -9 8 -15 2 -15 -5 0 -8 -10 -4 -22 4
-18 2 -20 -16 -16 -12 4 -25 2 -28 -3 -3 -5 0 -9 5 -9 15 0 14 -16 -2 -32 -8
-7 -12 -19 -9 -26 3 -9 -3 -11 -22 -6 -16 4 -26 2 -26 -5 0 -6 7 -11 16 -11 8
0 12 -5 8 -11 -4 -7 -10 -7 -16 -1 -6 6 -17 8 -24 5 -10 -4 -14 4 -14 31 0 21
-5 37 -12 38 -7 0 -20 2 -28 2 -8 1 -14 8 -12 16 2 7 -3 17 -10 21 -10 7 -10
9 3 9 8 0 20 -5 27 -12 9 -9 12 -8 12 5 0 9 5 17 10 17 6 0 10 5 10 10 0 7
-13 8 -35 4 -23 -4 -35 -2 -35 5 0 6 9 11 20 11 20 0 25 15 14 43 -3 9 -13 13
-25 10 -15 -4 -18 -2 -12 13 6 18 6 18 -14 2 -21 -19 -48 -25 -38 -8 3 5 0 8
-7 5 -7 -3 -19 -1 -26 3 -16 10 -5 42 14 42 17 0 19 17 2 22 -7 3 -2 18 16 44
l26 39 -30 9 c-16 5 -30 13 -30 17 0 5 3 8 8 8 23 -4 52 2 47 10 -3 5 0 13 6
17 9 5 7 11 -6 20 -16 12 -17 14 -2 20 10 3 17 11 17 16 0 6 -7 8 -15 4 -8 -3
-15 -1 -15 4 0 6 5 10 10 10 6 0 10 6 10 13 0 13 18 17 73 17 15 0 27 4 27 10
0 5 12 10 28 10 18 0 23 -3 14 -8z m-4281 -51 c18 9 20 8 15 -9 -5 -15 -1 -21
18 -24 19 -4 23 -1 19 11 -4 10 2 8 16 -6 12 -13 33 -26 46 -29 14 -3 25 -9
26 -13 7 -43 7 -91 1 -91 -5 0 -7 -21 -6 -46 4 -70 -22 -119 -58 -110 -12 3
-18 -2 -18 -15 0 -12 -5 -16 -15 -13 -8 4 -15 1 -15 -5 0 -6 -7 -11 -16 -11
-8 0 -12 -4 -9 -10 3 -5 -3 -10 -14 -10 -12 0 -21 5 -21 10 0 6 -11 10 -25 10
-14 0 -25 -4 -25 -9 0 -6 9 -8 20 -6 11 2 20 0 20 -6 0 -5 -7 -9 -16 -9 -8 0
-12 -4 -9 -10 3 -5 3 -10 -2 -10 -11 1 -49 30 -39 30 5 0 3 7 -4 15 -7 9 -9
22 -4 32 4 10 8 27 8 38 1 14 7 19 21 17 14 -2 16 0 8 6 -10 6 -10 19 1 62 8
30 12 58 10 62 -2 3 3 23 13 42 13 29 14 40 5 61 -7 15 -8 25 -2 25 6 0 10 10
10 23 1 20 2 20 11 4 8 -14 14 -15 30 -6z m1024 -28 c-22 -15 -28 -12 -19 10
3 9 12 13 21 10 14 -5 13 -8 -2 -20z m383 6 c2 -4 11 -6 20 -3 14 5 14 3 -2
-10 -17 -14 -21 -13 -42 2 -13 9 -24 21 -24 25 0 10 44 -3 48 -14z m-28 -39
c0 -5 -4 -10 -10 -10 -5 0 -10 5 -10 10 0 6 5 10 10 10 6 0 10 -4 10 -10z
m3047 -86 c-3 -3 -12 -4 -19 -1 -8 3 -5 6 6 6 11 1 17 -2 13 -5z m-1702 -83
c3 -5 1 -12 -5 -16 -5 -3 -10 1 -10 9 0 18 6 21 15 7z m1475 -75 c0 -9 -30
-14 -35 -6 -4 6 3 10 14 10 12 0 21 -2 21 -4z m-2728 -38 c-7 -7 -12 -8 -12
-2 0 14 12 26 19 19 2 -3 -1 -11 -7 -17z m2958 12 c0 -5 -5 -10 -11 -10 -5 0
-7 5 -4 10 3 6 8 10 11 10 2 0 4 -4 4 -10z m-2913 -16 c-3 -3 -12 -4 -19 -1
-8 3 -5 6 6 6 11 1 17 -2 13 -5z m1338 -34 c3 -5 2 -10 -4 -10 -5 0 -13 5 -16
10 -3 6 -2 10 4 10 5 0 13 -4 16 -10z m1311 -47 c-3 -4 6 -12 21 -19 27 -12
27 -12 5 -13 -13 -1 -35 8 -49 19 l-26 20 28 0 c16 0 25 -3 21 -7z m-2789 -45
c-3 -8 -6 -5 -6 6 -1 11 2 17 5 13 3 -3 4 -12 1 -19z m2784 -11 c4 -5 16 -7
28 -4 14 3 21 0 21 -10 0 -8 -5 -11 -11 -7 -6 3 -14 1 -18 -5 -5 -7 -14 -5
-29 9 -26 24 -32 25 -32 4 0 -9 9 -18 20 -21 34 -9 22 -18 -24 -18 -50 0 -72
13 -37 22 17 4 22 11 18 29 -4 21 -1 22 27 17 17 -3 34 -11 37 -16z m-2728 -3
c10 -10 -13 -45 -24 -38 -7 4 -6 10 0 18 6 7 8 16 4 19 -3 4 -2 7 4 7 5 0 13
-3 16 -6z m-83 -26 c0 -4 -7 -8 -15 -8 -8 0 -15 4 -15 8 0 5 7 9 15 9 8 0 15
-4 15 -9z m-805 -33 c0 -26 -9 -33 -20 -15 -4 6 -1 17 5 25 16 19 15 19 15
-10z m1575 5 c0 -5 -5 -10 -11 -10 -5 0 -7 5 -4 10 3 6 8 10 11 10 2 0 4 -4 4
-10z m1955 -21 c4 -5 0 -18 -9 -28 -12 -13 -13 -20 -4 -29 14 -14 13 -14 -24
-16 -16 -1 -28 2 -28 6 0 4 -9 8 -21 8 -19 0 -19 1 -4 17 14 13 18 14 25 2 5
-7 12 -10 16 -6 4 4 -4 17 -17 28 -23 21 -23 22 -3 17 12 -3 28 -2 35 3 18 12
26 11 34 -2z m-3541 -15 c12 -5 13 -10 5 -26 -7 -13 -7 -23 0 -32 7 -9 7 -16
-1 -24 -8 -8 -8 -15 1 -25 9 -11 8 -17 -4 -27 -10 -8 -12 -18 -6 -28 5 -8 7
-22 5 -31 -11 -58 -16 -71 -24 -66 -6 3 -10 1 -10 -5 0 -7 8 -14 19 -17 17 -4
17 -6 -5 -30 -13 -14 -24 -37 -24 -51 0 -14 -7 -30 -15 -36 -8 -6 -16 -20 -18
-31 -5 -25 -23 -74 -37 -98 -6 -10 -9 -21 -6 -26 3 -4 -4 -13 -14 -21 -10 -8
-17 -17 -14 -21 7 -11 -17 -61 -40 -84 -12 -11 -21 -26 -21 -34 0 -23 -22 -24
-44 -2 -12 12 -27 21 -34 21 -18 0 -57 46 -57 66 0 10 -6 14 -15 11 -8 -4 -17
-2 -20 3 -3 5 5 10 17 12 20 3 21 4 5 20 -9 9 -22 18 -29 20 -10 4 -10 8 1 21
12 15 11 17 -8 17 -30 0 -26 13 13 51 19 17 32 38 29 45 -3 8 1 14 11 14 9 0
16 5 16 11 0 6 -7 9 -15 5 -9 -3 -15 0 -15 9 0 9 9 15 21 15 16 0 19 3 11 13
-8 9 -5 19 8 37 24 30 25 44 5 36 -9 -3 -15 0 -15 9 0 8 5 15 11 15 5 0 7 5 4
10 -3 6 1 10 9 10 9 0 16 7 16 15 0 8 -4 15 -9 15 -4 0 -6 11 -3 25 2 14 9 25
16 25 6 0 17 9 24 20 7 12 17 18 22 15 6 -3 10 1 10 10 0 13 4 14 21 4 17 -9
23 -7 36 10 8 12 23 21 33 21 21 0 35 -16 21 -24 -5 -4 -11 -1 -13 6 -5 13
-28 2 -28 -13 0 -5 19 -7 43 -5 23 3 49 6 57 6 8 1 4 6 -10 10 -17 5 -19 8 -7
9 9 1 17 5 17 10 0 5 11 12 25 15 24 6 25 8 11 35 -19 35 -12 47 18 35z m1291
-4 c-3 -5 -12 -10 -18 -10 -7 0 -6 4 3 10 19 12 23 12 15 0z m2313 -23 c2 -9
-1 -17 -7 -17 -6 0 -11 6 -11 14 0 8 -6 17 -12 20 -7 3 -4 5 7 3 11 -1 21 -10
23 -20z m-2708 -13 c0 -2 -9 -4 -21 -4 -11 0 -18 4 -14 10 5 8 35 3 35 -6z
m2684 -29 c-4 -9 -19 -15 -37 -15 -35 0 -26 16 13 23 14 2 26 5 27 6 1 0 0 -6
-3 -14z m-3667 -1 c-3 -3 -12 -4 -19 -1 -8 3 -5 6 6 6 11 1 17 -2 13 -5z
m3583 -14 c0 -5 -4 -10 -10 -10 -5 0 -10 5 -10 10 0 6 5 10 10 10 6 0 10 -4
10 -10z m136 -74 c2 -17 -2 -26 -12 -26 -18 0 -32 32 -16 38 17 5 15 22 -3 22
-8 0 -15 -4 -15 -9 0 -18 -26 -18 -27 -1 -2 23 36 32 56 14 8 -7 15 -24 17
-38z m-921 -106 c-3 -5 -10 -10 -16 -10 -5 0 -9 5 -9 10 0 6 7 10 16 10 8 0
12 -4 9 -10z m-3399 -85 c-7 -18 5 -20 22 -3 9 9 12 8 12 -4 0 -10 10 -18 23
-20 21 -3 20 -4 -8 -20 -16 -10 -24 -17 -17 -18 6 0 12 -7 12 -15 0 -8 6 -15
13 -16 8 0 8 -2 1 -5 -7 -3 -26 8 -44 25 -33 29 -45 69 -25 83 15 11 18 10 11
-7z m3529 5 c3 -5 1 -10 -4 -10 -6 0 -11 5 -11 10 0 6 2 10 4 10 3 0 8 -4 11
-10z m230 -28 c-8 -9 -25 20 -18 31 3 5 10 2 15 -7 6 -10 7 -20 3 -24z m-295
-2 c-8 -5 -19 -10 -25 -10 -5 0 -3 5 5 10 8 5 20 10 25 10 6 0 3 -5 -5 -10z
m-1353 -16 c-3 -3 -12 -4 -19 -1 -8 3 -5 6 6 6 11 1 17 -2 13 -5z m-507 -98
c0 -3 -4 -8 -10 -11 -5 -3 -10 -1 -10 4 0 6 5 11 10 11 6 0 10 -2 10 -4z m465
-36 c-28 -12 -37 -12 -30 0 3 6 16 10 28 9 21 0 21 -1 2 -9z m320 -109 c3 -5
2 -12 -3 -15 -5 -3 -9 1 -9 9 0 17 3 19 12 6z m-218 -17 c-3 -3 -12 -4 -19 -1
-8 3 -5 6 6 6 11 1 17 -2 13 -5z m2213 -44 c0 -5 -5 -10 -11 -10 -5 0 -7 5 -4
10 3 6 8 10 11 10 2 0 4 -4 4 -10z m-2040 -30 c0 -5 -4 -10 -9 -10 -6 0 -13 5
-16 10 -3 6 1 10 9 10 9 0 16 -4 16 -10z m310 -11 c0 -5 -4 -9 -10 -9 -5 0
-10 7 -10 16 0 8 5 12 10 9 6 -3 10 -10 10 -16z m-55 -9 c3 -5 -1 -10 -10 -10
-9 0 -13 5 -10 10 3 6 8 10 10 10 2 0 7 -4 10 -10z m-188 -46 c-3 -3 -12 -4
-19 -1 -8 3 -5 6 6 6 11 1 17 -2 13 -5z m-33 -43 c3 -4 -6 -6 -19 -3 -14 2
-25 6 -25 8 0 8 39 4 44 -5z m-96 -51 c10 0 13 -3 6 -10 -11 -11 -54 -2 -54
12 0 6 7 7 16 4 9 -3 23 -6 32 -6z m1982 -5 c-7 -9 -15 -13 -19 -10 -3 3 1 10
9 15 21 14 24 12 10 -5z m-1725 -5 c-3 -5 -10 -10 -16 -10 -5 0 -9 5 -9 10 0
6 7 10 16 10 8 0 12 -4 9 -10z m-135 -30 c0 -5 -7 -7 -15 -4 -8 4 -15 8 -15
10 0 2 7 4 15 4 8 0 15 -4 15 -10z m140 0 c0 -5 -4 -10 -10 -10 -5 0 -10 5
-10 10 0 6 5 10 10 10 6 0 10 -4 10 -10z m1643 3 c-7 -2 -19 -2 -25 0 -7 3 -2
5 12 5 14 0 19 -2 13 -5z m37 -49 c0 -9 -5 -14 -12 -12 -18 6 -21 28 -4 28 9
0 16 -7 16 -16z m-1570 -28 c0 -9 -32 -36 -42 -36 -6 0 -1 9 12 20 23 20 30
24 30 16z m1610 -6 c-8 -5 -19 -10 -25 -10 -5 0 -3 5 5 10 8 5 20 10 25 10 6
0 3 -5 -5 -10z m-1863 -6 c-3 -3 -12 -4 -19 -1 -8 3 -5 6 6 6 11 1 17 -2 13
-5z m-114 -10 c9 -3 13 -17 11 -40 -2 -26 1 -34 14 -34 15 0 15 -2 2 -10 -18
-11 -42 26 -33 54 3 10 -1 22 -8 27 -16 10 -8 12 14 3z m50 -35 c3 -13 1 -19
-6 -16 -15 5 -22 37 -9 37 5 0 12 -9 15 -21z m317 -29 c0 -5 -5 -10 -11 -10
-5 0 -7 5 -4 10 3 6 8 10 11 10 2 0 4 -4 4 -10z m1260 0 c0 -14 37 -12 44 3 5
9 7 9 12 0 3 -8 15 -11 29 -7 13 3 26 0 30 -6 5 -9 1 -10 -13 -6 -11 4 -23 2
-27 -4 -3 -6 3 -10 14 -10 12 0 21 -4 21 -10 0 -5 -11 -10 -25 -10 -18 0 -25
5 -25 20 0 17 -5 19 -24 14 -16 -4 -34 0 -48 10 -18 13 -19 16 -5 16 9 0 17
-4 17 -10z m-1375 -10 c3 -6 -1 -7 -9 -4 -18 7 -21 14 -7 14 6 0 13 -4 16 -10z
m-255 -69 c0 -12 -28 -22 -34 -12 -3 5 -3 11 1 15 9 9 33 7 33 -3z m1820 -22
c0 -5 -4 -9 -10 -9 -5 0 -10 7 -10 16 0 8 5 12 10 9 6 -3 10 -10 10 -16z m-53
-5 c-3 -3 -12 -4 -19 -1 -8 3 -5 6 6 6 11 1 17 -2 13 -5z m143 -23 c0 -6 -9
-9 -20 -8 -11 1 -20 5 -20 9 0 4 9 8 20 8 11 0 20 -4 20 -9z m-190 -141 c-19
-13 -30 -13 -30 0 0 6 10 10 23 10 18 0 19 -2 7 -10z m97 -18 c-9 -2 -17 -12
-17 -23 0 -18 -10 -23 -39 -19 -9 1 -12 -4 -8 -14 3 -8 1 -18 -5 -22 -7 -4 -8
-3 -4 4 4 7 3 12 -3 12 -5 0 -11 -6 -14 -12 -3 -10 -10 -8 -23 5 -18 16 -17
17 6 17 19 0 21 3 11 9 -8 5 -20 7 -28 4 -7 -3 -13 0 -13 6 0 6 7 11 15 11 8
0 15 7 15 15 0 18 11 19 29 3 11 -11 13 -10 8 5 -6 15 -3 17 13 12 11 -4 20
-2 20 4 0 7 9 6 27 -2 20 -9 23 -13 10 -15z m-345 -176 c5 -24 4 -24 -17 -8
-16 12 -19 19 -11 24 18 12 23 9 28 -16z m58 21 c0 -2 -10 -12 -21 -23 -22
-19 -22 -19 -10 4 10 18 31 31 31 19z m-213 -13 c-3 -3 -12 -4 -19 -1 -8 3 -5
6 6 6 11 1 17 -2 13 -5z m-1647 -64 c0 -5 -2 -10 -4 -10 -3 0 -8 5 -11 10 -3
6 -1 10 4 10 6 0 11 -4 11 -10z m650 -10 c0 -5 -4 -10 -9 -10 -6 0 -13 5 -16
10 -3 6 1 10 9 10 9 0 16 -4 16 -10z m-266 -32 c-9 -14 -23 2 -17 18 4 12 8
13 14 3 4 -7 5 -17 3 -21z m1161 12 c3 -5 1 -10 -4 -10 -6 0 -11 5 -11 10 0 6
2 10 4 10 3 0 8 -4 11 -10z m305 0 c0 -5 -5 -10 -11 -10 -5 0 -7 5 -4 10 3 6
8 10 11 10 2 0 4 -4 4 -10z m-1524 -15 c-11 -8 -22 -12 -25 -9 -6 6 19 24 34
24 6 -1 1 -7 -9 -15z m1458 -10 c-4 -8 -14 -15 -23 -15 -14 1 -13 3 3 15 25
19 27 19 20 0z m-1391 -15 c12 0 -23 -29 -35 -30 -5 0 -8 9 -8 21 0 15 4 19
16 15 9 -3 21 -6 27 -6z m1417 6 c0 -3 -4 -8 -10 -11 -5 -3 -10 -1 -10 4 0 6
5 11 10 11 6 0 10 -2 10 -4z m-1055 -26 c-3 -5 -15 -10 -26 -10 -11 0 -17 5
-14 10 3 6 15 10 26 10 11 0 17 -4 14 -10z m-580 -10 c-3 -5 -10 -10 -16 -10
-5 0 -9 5 -9 10 0 6 7 10 16 10 8 0 12 -4 9 -10z m233 -38 c2 -15 10 -22 25
-22 20 -1 21 -2 5 -14 -10 -7 -18 -18 -18 -25 0 -6 -10 -11 -22 -11 -20 0 -20
1 -4 19 18 20 14 41 -7 41 -7 0 -13 9 -14 21 -2 29 31 21 35 -9z m-152 -9
c-10 -10 -19 5 -10 18 6 11 8 11 12 0 2 -7 1 -15 -2 -18z m49 7 c3 -5 -3 -10
-14 -10 -12 0 -21 5 -21 10 0 6 6 10 14 10 8 0 18 -4 21 -10z m440 0 c3 -5 1
-10 -4 -10 -6 0 -11 5 -11 10 0 6 2 10 4 10 3 0 8 -4 11 -10z m-265 -40 c0 -5
-4 -10 -10 -10 -5 0 -10 5 -10 10 0 6 5 10 10 10 6 0 10 -4 10 -10z m-15 -60
c3 -5 2 -10 -4 -10 -5 0 -13 5 -16 10 -3 6 -2 10 4 10 5 0 13 -4 16 -10z m365
-10 c0 -5 -4 -10 -10 -10 -5 0 -10 5 -10 10 0 6 5 10 10 10 6 0 10 -4 10 -10z
m657 -80 c-3 -11 -1 -23 4 -26 14 -8 11 -24 -6 -24 -16 0 -31 43 -20 59 11 19
28 12 22 -9z m-557 -30 c0 -5 -4 -10 -10 -10 -5 0 -10 5 -10 10 0 6 5 10 10
10 6 0 10 -4 10 -10z m357 -75 c-7 -14 -15 -25 -18 -25 -10 0 -5 34 6 42 19
14 23 8 12 -17z m44 -5 c5 0 9 -8 9 -17 0 -15 -2 -14 -15 3 -8 10 -14 26 -14
34 1 11 3 10 6 -2 2 -10 9 -18 14 -18z m-40 -75 c5 4 9 1 9 -4 0 -6 -6 -11
-14 -11 -16 0 -28 24 -18 35 4 4 8 0 10 -9 2 -9 8 -14 13 -11z m-594 -37 c-3
-8 -6 -5 -6 6 -1 11 2 17 5 13 3 -3 4 -12 1 -19z m371 -174 c-9 -9 -22 -14
-30 -11 -8 3 -4 8 12 15 35 15 37 14 18 -4z m-8 -39 c0 -16 -35 -21 -44 -6 -8
12 4 21 26 21 10 0 18 -7 18 -15z m-650 -26 c0 -5 -3 -8 -7 -7 -5 1 -19 -4
-33 -12 -23 -12 -24 -12 -11 3 7 10 10 17 5 18 -5 0 0 4 11 8 22 9 35 5 35
-10z m605 -29 c-3 -5 -11 -10 -16 -10 -6 0 -7 5 -4 10 3 6 11 10 16 10 6 0 7
-4 4 -10z m405 -180 c0 -5 -4 -10 -10 -10 -5 0 -10 5 -10 10 0 6 5 10 10 10 6
0 10 -4 10 -10z m80 -75 c0 -8 -7 -15 -15 -15 -26 0 -18 20 13 29 1 1 2 -6 2
-14z m-95 -15 c3 -5 -1 -10 -10 -10 -9 0 -13 5 -10 10 3 6 8 10 10 10 2 0 7
-4 10 -10z m-355 -680 c0 -5 -6 -10 -14 -10 -8 0 -18 5 -21 10 -3 6 3 10 14
10 12 0 21 -4 21 -10z m-2170 -60 c0 -5 -2 -10 -4 -10 -3 0 -8 5 -11 10 -3 6
-1 10 4 10 6 0 11 -4 11 -10z m2000 -30 c0 -5 -4 -10 -10 -10 -5 0 -10 5 -10
10 0 6 5 10 10 10 6 0 10 -4 10 -10z m-1503 -165 c8 -9 12 -19 8 -23 -3 -4
-12 0 -18 9 -7 9 -19 18 -27 22 -12 4 -11 6 3 6 10 1 25 -6 34 -14z m193 5 c0
-5 -7 -10 -16 -10 -8 0 -12 5 -9 10 3 6 10 10 16 10 5 0 9 -4 9 -10z m65 -30
c3 -5 1 -10 -4 -10 -6 0 -11 5 -11 10 0 6 2 10 4 10 3 0 8 -4 11 -10z m255
-20 c0 -5 -4 -10 -9 -10 -6 0 -13 5 -16 10 -3 6 1 10 9 10 9 0 16 -4 16 -10z"/>
<path d="M4980 18400 c0 -5 4 -10 9 -10 6 0 13 5 16 10 3 6 -1 10 -9 10 -9 0
-16 -4 -16 -10z"/>
<path d="M9705 17240 c3 -5 8 -10 11 -10 2 0 4 5 4 10 0 6 -5 10 -11 10 -5 0
-7 -4 -4 -10z"/>
<path d="M9595 17230 c3 -5 8 -10 11 -10 2 0 4 5 4 10 0 6 -5 10 -11 10 -5 0
-7 -4 -4 -10z"/>
<path d="M9645 17210 c3 -5 11 -10 16 -10 6 0 7 5 4 10 -3 6 -11 10 -16 10 -6
0 -7 -4 -4 -10z"/>
<path d="M9615 17050 c-3 -5 -12 -7 -20 -3 -8 3 -15 0 -15 -6 0 -6 6 -11 13
-11 17 0 56 29 40 30 -6 0 -14 -4 -18 -10z"/>
<path d="M9675 17014 c8 -9 22 -13 30 -10 26 10 16 26 -16 26 -28 0 -29 -1
-14 -16z"/>
<path d="M9630 17000 c0 -5 5 -10 11 -10 5 0 7 5 4 10 -3 6 -8 10 -11 10 -2 0
-4 -4 -4 -10z"/>
<path d="M9460 16850 c0 -5 5 -10 10 -10 6 0 10 5 10 10 0 6 -4 10 -10 10 -5
0 -10 -4 -10 -10z"/>
<path d="M5860 16699 c0 -5 5 -7 10 -4 6 3 10 8 10 11 0 2 -4 4 -10 4 -5 0
-10 -5 -10 -11z"/>
<path d="M5768 16653 c7 -3 16 -2 19 1 4 3 -2 6 -13 5 -11 0 -14 -3 -6 -6z"/>
<path d="M5531 16264 c0 -11 3 -14 6 -6 3 7 2 16 -1 19 -3 4 -6 -2 -5 -13z"/>
<path d="M5560 16240 c0 -5 5 -10 11 -10 5 0 7 5 4 10 -3 6 -8 10 -11 10 -2 0
-4 -4 -4 -10z"/>
<path d="M5580 16139 c0 -5 5 -7 10 -4 6 3 10 8 10 11 0 2 -4 4 -10 4 -5 0
-10 -5 -10 -11z"/>
<path d="M8805 19980 c4 -6 11 -8 16 -5 14 9 11 15 -7 15 -8 0 -12 -5 -9 -10z"/>
<path d="M8777 19930 c3 -12 0 -20 -7 -20 -7 0 -9 -8 -5 -20 6 -18 3 -20 -17
-17 -13 2 -18 2 -11 0 7 -2 9 -11 6 -19 -3 -9 2 -14 16 -14 12 0 21 6 21 15 0
8 5 15 11 15 6 0 8 -6 5 -12 -3 -7 -9 -21 -12 -30 -4 -10 -10 -18 -15 -18 -21
0 5 -26 28 -28 15 -1 31 -8 36 -15 6 -8 7 -7 3 5 -6 19 9 34 19 18 3 -5 22
-10 41 -10 26 0 34 4 34 18 -1 27 -26 67 -34 53 -4 -6 -13 -11 -19 -11 -7 1
-3 8 9 18 11 10 18 24 16 31 -3 8 0 11 6 7 6 -3 13 -2 16 3 4 5 2 12 -3 15 -5
4 -12 2 -16 -4 -3 -5 -15 -10 -25 -10 -11 0 -22 -11 -28 -27 -6 -16 -11 -23
-11 -16 -1 7 -8 10 -18 6 -11 -4 -14 -3 -9 5 4 8 0 12 -11 12 -15 0 -15 3 6
19 l24 18 -23 6 c-12 3 -19 10 -15 16 3 6 0 11 -8 11 -10 0 -13 -7 -10 -20z
m48 -90 c3 -5 2 -10 -4 -10 -5 0 -13 5 -16 10 -3 6 -2 10 4 10 5 0 13 -4 16
-10z m68 -30 c3 -11 1 -20 -4 -20 -5 0 -9 9 -9 20 0 11 2 20 4 20 2 0 6 -9 9
-20z"/>
<path d="M8720 19906 c0 -2 7 -7 16 -10 8 -3 12 -2 9 4 -6 10 -25 14 -25 6z"/>
<path d="M8665 19810 c3 -5 8 -10 11 -10 2 0 4 5 4 10 0 6 -5 10 -11 10 -5 0
-7 -4 -4 -10z"/>
<path d="M8646 19731 c-3 -5 1 -14 9 -21 10 -9 15 -9 15 -1 0 6 -6 11 -12 11
-9 0 -8 4 2 10 9 6 10 10 3 10 -6 0 -14 -4 -17 -9z"/>
<path d="M8620 19700 c0 -5 5 -10 10 -10 6 0 10 5 10 10 0 6 -4 10 -10 10 -5
0 -10 -4 -10 -10z"/>
<path d="M8596 19681 c-5 -7 -3 -18 3 -24 14 -14 20 -6 11 17 -5 15 -9 16 -14
7z"/>
<path d="M8645 19610 c4 -6 11 -8 16 -5 14 9 11 15 -7 15 -8 0 -12 -5 -9 -10z"/>
<path d="M8945 19540 c28 -12 37 -12 30 0 -3 6 -16 10 -28 9 -21 0 -21 -1 -2
-9z"/>
<path d="M9015 19520 c-3 -5 -1 -10 4 -10 6 0 11 5 11 10 0 6 -2 10 -4 10 -3
0 -8 -4 -11 -10z"/>
<path d="M8897 19513 c-12 -11 -8 -23 8 -23 8 0 15 7 15 15 0 16 -12 20 -23 8z"/>
<path d="M9310 19380 c0 -5 7 -10 15 -10 17 0 21 -19 5 -21 -5 -1 -14 -3 -20
-4 -5 -1 -13 -3 -17 -4 -8 -2 55 -31 66 -31 3 0 -1 5 -9 10 -12 8 -13 12 -2
19 12 7 12 12 1 30 -14 22 -39 29 -39 11z"/>
<path d="M9175 19351 c-3 -5 -1 -12 5 -16 5 -3 10 1 10 9 0 18 -6 21 -15 7z"/>
<path d="M9215 19349 c-10 -15 3 -25 16 -12 7 7 7 13 1 17 -6 3 -14 1 -17 -5z"/>
<path d="M9240 19295 c-8 -9 -8 -15 -2 -15 12 0 26 19 19 26 -2 2 -10 -2 -17
-11z"/>
<path d="M9316 19295 c-3 -8 -1 -15 4 -15 6 0 10 7 10 15 0 8 -2 15 -4 15 -2
0 -6 -7 -10 -15z"/>
<path d="M9180 19260 c0 -5 5 -10 10 -10 6 0 10 5 10 10 0 6 -4 10 -10 10 -5
0 -10 -4 -10 -10z"/>
<path d="M9275 19259 c8 -12 75 -12 75 0 0 5 -18 9 -40 9 -23 1 -38 -3 -35 -9z"/>
<path d="M23430 19180 c0 -5 5 -10 10 -10 6 0 10 5 10 10 0 6 -4 10 -10 10 -5
0 -10 -4 -10 -10z"/>
<path d="M23215 19110 c-3 -5 -12 -7 -20 -3 -18 6 -20 -13 -3 -23 6 -4 14 -2
16 4 2 7 10 12 18 12 8 0 14 5 14 10 0 13 -17 13 -25 0z"/>
<path d="M23380 19096 c0 -2 7 -6 15 -10 8 -3 15 -1 15 4 0 6 -7 10 -15 10 -8
0 -15 -2 -15 -4z"/>
<path d="M23126 19031 c-4 -5 3 -7 14 -4 23 6 26 13 6 13 -8 0 -17 -4 -20 -9z"/>
<path d="M23530 18970 c0 -5 4 -10 9 -10 6 0 13 5 16 10 3 6 -1 10 -9 10 -9 0
-16 -4 -16 -10z"/>
<path d="M23558 18943 c7 -3 16 -2 19 1 4 3 -2 6 -13 5 -11 0 -14 -3 -6 -6z"/>
<path d="M6570 17839 c0 -5 5 -7 10 -4 6 3 10 8 10 11 0 2 -4 4 -10 4 -5 0
-10 -5 -10 -11z"/>
<path d="M6350 17730 c0 -5 5 -10 11 -10 5 0 7 5 4 10 -3 6 -8 10 -11 10 -2 0
-4 -4 -4 -10z"/>
<path d="M6925 17670 c-3 -5 -1 -10 4 -10 6 0 11 5 11 10 0 6 -2 10 -4 10 -3
0 -8 -4 -11 -10z"/>
<path d="M6975 17570 c-3 -5 -2 -10 4 -10 5 0 13 5 16 10 3 6 2 10 -4 10 -5 0
-13 -4 -16 -10z"/>
<path d="M6655 17520 c3 -5 13 -10 21 -10 8 0 12 5 9 10 -3 6 -13 10 -21 10
-8 0 -12 -4 -9 -10z"/>
<path d="M7480 17230 c0 -5 5 -10 11 -10 5 0 7 5 4 10 -3 6 -8 10 -11 10 -2 0
-4 -4 -4 -10z"/>
<path d="M7930 17150 c0 -5 5 -10 10 -10 6 0 10 5 10 10 0 6 -4 10 -10 10 -5
0 -10 -4 -10 -10z"/>
<path d="M7957 17119 c7 -7 15 -10 18 -7 3 3 -2 9 -12 12 -14 6 -15 5 -6 -5z"/>
<path d="M6960 17030 c0 -5 5 -10 10 -10 6 0 10 5 10 10 0 6 -4 10 -10 10 -5
0 -10 -4 -10 -10z"/>
<path d="M6844 16981 c3 -5 15 -11 26 -14 17 -4 19 -3 9 9 -12 15 -44 20 -35
5z"/>
<path d="M6830 16850 c0 -5 5 -10 10 -10 6 0 10 5 10 10 0 6 -4 10 -10 10 -5
0 -10 -4 -10 -10z"/>
<path d="M7085 16710 c4 -6 11 -8 16 -5 14 9 11 15 -7 15 -8 0 -12 -5 -9 -10z"/>
<path d="M7620 16700 c0 -5 5 -10 10 -10 6 0 10 5 10 10 0 6 -4 10 -10 10 -5
0 -10 -4 -10 -10z"/>
<path d="M7056 16591 c-4 -7 -5 -15 -2 -18 9 -9 19 4 14 18 -4 11 -6 11 -12 0z"/>
<path d="M7060 16460 c-22 -5 -23 -7 -7 -13 10 -4 26 -3 34 2 21 11 4 19 -27
11z"/>
<path d="M9000 16442 c0 -16 13 -20 35 -11 11 4 15 8 8 8 -6 1 -18 4 -27 7 -9
3 -16 1 -16 -4z"/>
<path d="M7110 16402 c0 -4 9 -8 20 -9 11 -1 20 2 20 8 0 5 -9 9 -20 9 -11 0
-20 -4 -20 -8z"/>
<path d="M6105 16390 c-3 -6 1 -7 9 -4 18 7 21 14 7 14 -6 0 -13 -4 -16 -10z"/>
<path d="M9050 16371 c0 -14 18 -23 31 -15 8 4 7 9 -2 15 -18 11 -29 11 -29 0z"/>
<path d="M7090 16361 c-23 -7 -23 -8 -5 -13 11 -3 26 1 33 9 14 14 10 15 -28
4z"/>
<path d="M7132 16348 c-23 -23 -10 -55 16 -39 8 5 10 15 5 29 -7 18 -11 20
-21 10z"/>
<path d="M7630 16310 c0 -5 5 -10 11 -10 5 0 7 5 4 10 -3 6 -8 10 -11 10 -2 0
-4 -4 -4 -10z"/>
<path d="M9200 16283 c0 -9 -3 -13 -6 -10 -4 3 -15 2 -25 -4 -12 -6 -19 -6
-19 0 0 5 6 12 13 14 6 3 2 6 -10 6 -14 1 -23 -5 -23 -14 0 -8 -6 -15 -12 -16
-7 0 -2 -5 11 -10 19 -8 21 -12 11 -24 -7 -8 -21 -15 -32 -15 -10 0 -17 -4
-13 -10 3 -5 12 -7 20 -4 20 8 32 -25 14 -37 -10 -6 -8 -9 9 -9 19 0 22 -4 17
-20 -5 -14 -2 -20 9 -20 9 0 16 -6 16 -13 0 -18 38 -52 47 -44 4 4 -2 13 -12
20 -16 13 -16 14 -1 20 9 4 16 1 16 -5 0 -6 7 -5 18 3 15 13 16 12 4 -3 -9
-12 -10 -18 -2 -23 33 -20 47 70 17 105 -13 16 -13 19 -1 24 8 3 14 1 14 -4 0
-6 5 -10 11 -10 8 0 8 4 1 13 -10 12 -12 18 -12 37 0 6 -7 10 -15 10 -8 0 -15
7 -15 15 0 8 5 14 11 13 6 -2 14 3 17 11 3 8 0 11 -7 7 -6 -4 -11 -3 -11 1 0
5 -13 10 -30 11 -22 2 -30 -2 -30 -15z m18 -155 c-2 -6 -10 -14 -16 -16 -7 -2
-10 2 -6 12 7 18 28 22 22 4z"/>
<path d="M8885 16270 c4 -6 11 -8 16 -5 14 9 11 15 -7 15 -8 0 -12 -5 -9 -10z"/>
<path d="M9322 16200 c0 -14 2 -19 5 -12 2 6 2 18 0 25 -3 6 -5 1 -5 -13z"/>
<path d="M6790 16139 c0 -5 5 -7 10 -4 6 3 10 8 10 11 0 2 -4 4 -10 4 -5 0
-10 -5 -10 -11z"/>
<path d="M7265 16110 c-3 -5 -1 -10 4 -10 6 0 11 5 11 10 0 6 -2 10 -4 10 -3
0 -8 -4 -11 -10z"/>
<path d="M7780 16101 c0 -6 9 -9 19 -8 11 0 17 5 15 9 -7 11 -34 10 -34 -1z"/>
<path d="M6816 16089 c4 -7 7 -25 6 -40 0 -19 4 -29 14 -29 8 0 12 -5 9 -10
-4 -6 -11 -8 -16 -5 -5 4 -9 -1 -9 -10 0 -10 4 -13 13 -8 18 11 37 12 37 2 0
-5 -7 -9 -15 -9 -18 0 -20 -16 -2 -23 7 -4 3 -8 -11 -13 -22 -6 -22 -7 -3 -20
13 -10 19 -25 19 -46 -1 -18 4 -34 10 -36 7 -2 12 -9 12 -16 0 -8 10 -26 22
-41 15 -20 18 -30 10 -33 -7 -2 -12 -8 -12 -13 0 -6 5 -7 11 -4 5 4 20 -1 31
-12 12 -10 18 -12 14 -5 -4 7 -1 15 9 18 14 6 14 8 -1 25 -9 10 -14 25 -11 33
3 8 -3 22 -14 32 -20 18 -26 64 -8 64 5 0 7 5 4 10 -4 6 -12 7 -18 4 -7 -4 -9
-4 -5 1 16 17 -13 34 -40 24 l-27 -9 23 20 c16 13 33 18 55 15 l32 -5 -28 11
c-15 6 -30 21 -33 34 -4 15 -11 22 -20 18 -8 -3 -14 1 -14 10 0 8 -6 18 -12
20 -7 3 -4 6 6 6 18 1 18 3 -4 26 -24 25 -47 35 -34 14z"/>
<path d="M9335 16070 c-3 -5 -1 -10 4 -10 6 0 11 5 11 10 0 6 -2 10 -4 10 -3
0 -8 -4 -11 -10z"/>
<path d="M9481 16071 c-7 -5 -11 -15 -9 -22 3 -10 8 -7 17 9 13 24 12 26 -8
13z"/>
<path d="M9510 16059 c0 -5 5 -7 10 -4 6 3 10 8 10 11 0 2 -4 4 -10 4 -5 0
-10 -5 -10 -11z"/>
<path d="M9293 16035 c-20 -22 -21 -35 -1 -35 8 0 32 50 26 55 -2 1 -13 -8
-25 -20z"/>
<path d="M7915 16000 c-3 -5 -1 -10 4 -10 6 0 11 5 11 10 0 6 -2 10 -4 10 -3
0 -8 -4 -11 -10z"/>
<path d="M7427 15863 c-4 -3 -7 -11 -7 -17 0 -6 5 -5 12 2 6 6 9 14 7 17 -3 3
-9 2 -12 -2z"/>
<path d="M8860 15699 c0 -5 5 -7 10 -4 6 3 10 8 10 11 0 2 -4 4 -10 4 -5 0
-10 -5 -10 -11z"/>
<path d="M6940 15690 c0 -5 8 -10 18 -10 14 0 15 -2 2 -10 -20 -13 -4 -13 21
1 11 5 17 14 14 20 -8 12 -55 12 -55 -1z"/>
<path d="M8950 15680 c0 -5 5 -10 10 -10 6 0 10 5 10 10 0 6 -4 10 -10 10 -5
0 -10 -4 -10 -10z"/>
<path d="M7995 15590 c3 -5 8 -10 11 -10 2 0 4 5 4 10 0 6 -5 10 -11 10 -5 0
-7 -4 -4 -10z"/>
<path d="M7870 15460 c0 -5 5 -10 10 -10 6 0 10 5 10 10 0 6 -4 10 -10 10 -5
0 -10 -4 -10 -10z"/>
<path d="M7040 15441 c0 -11 5 -23 10 -26 6 -4 10 5 10 19 0 14 -4 26 -10 26
-5 0 -10 -9 -10 -19z"/>
<path d="M7077 15434 c-9 -10 4 -34 19 -34 16 0 16 2 8 24 -6 17 -16 20 -27
10z"/>
<path d="M7865 15419 c-4 -6 -5 -13 -2 -16 7 -7 27 6 27 18 0 12 -17 12 -25
-2z"/>
<path d="M8681 15394 c0 -11 3 -14 6 -6 3 7 2 16 -1 19 -3 4 -6 -2 -5 -13z"/>
<path d="M7880 15359 c0 -5 5 -7 10 -4 6 3 10 8 10 11 0 2 -4 4 -10 4 -5 0
-10 -5 -10 -11z"/>
<path d="M8090 15239 c0 -5 5 -7 10 -4 6 3 10 8 10 11 0 2 -4 4 -10 4 -5 0
-10 -5 -10 -11z"/>
<path d="M7880 15236 c0 -2 7 -7 16 -10 8 -3 12 -2 9 4 -6 10 -25 14 -25 6z"/>
<path d="M8050 15229 c0 -5 5 -7 10 -4 6 3 10 8 10 11 0 2 -4 4 -10 4 -5 0
-10 -5 -10 -11z"/>
<path d="M8014 15195 c6 -17 -9 -21 -19 -5 -4 6 -11 8 -16 4 -10 -6 7 -34 19
-32 23 2 31 -4 25 -19 -6 -17 -6 -17 10 -1 25 25 23 68 -4 68 -15 0 -19 -5
-15 -15z"/>
<path d="M7290 15185 c7 -9 15 -13 17 -11 7 7 -7 26 -19 26 -6 0 -6 -6 2 -15z"/>
<path d="M7905 15160 c-3 -5 1 -10 9 -10 8 0 18 5 21 10 3 6 -1 10 -9 10 -8 0
-18 -4 -21 -10z"/>
<path d="M7340 15150 c0 -5 5 -10 11 -10 5 0 7 5 4 10 -3 6 -8 10 -11 10 -2 0
-4 -4 -4 -10z"/>
<path d="M7945 15070 c-3 -5 1 -10 9 -10 9 0 16 5 16 10 0 6 -4 10 -9 10 -6 0
-13 -4 -16 -10z"/>
<path d="M7998 15043 c7 -3 16 -2 19 1 4 3 -2 6 -13 5 -11 0 -14 -3 -6 -6z"/>
<path d="M8525 14970 c-3 -5 3 -10 14 -10 12 0 21 5 21 10 0 6 -6 10 -14 10
-8 0 -18 -4 -21 -10z"/>
<path d="M6620 14900 c0 -5 5 -10 11 -10 5 0 7 5 4 10 -3 6 -8 10 -11 10 -2 0
-4 -4 -4 -10z"/>
<path d="M8535 14860 c-3 -5 -2 -10 4 -10 5 0 13 5 16 10 3 6 2 10 -4 10 -5 0
-13 -4 -16 -10z"/>
<path d="M8478 14853 c7 -3 16 -2 19 1 4 3 -2 6 -13 5 -11 0 -14 -3 -6 -6z"/>
<path d="M8215 14820 c-3 -5 1 -10 10 -10 9 0 13 5 10 10 -3 6 -8 10 -10 10
-2 0 -7 -4 -10 -10z"/>
<path d="M7435 14570 c-3 -5 -1 -10 4 -10 6 0 11 5 11 10 0 6 -2 10 -4 10 -3
0 -8 -4 -11 -10z"/>
<path d="M7440 14350 c0 -5 5 -10 10 -10 6 0 10 5 10 10 0 6 -4 10 -10 10 -5
0 -10 -4 -10 -10z"/>
<path d="M5383 13875 c0 -8 4 -15 9 -15 4 0 8 4 8 9 0 5 8 12 18 14 11 3 8 5
-9 6 -17 1 -26 -4 -26 -14z"/>
<path d="M5400 13855 c-10 -13 -9 -15 8 -15 15 0 20 5 16 15 -4 8 -7 15 -9 15
-1 0 -8 -7 -15 -15z"/>
<path d="M7830 13829 c0 -5 5 -7 10 -4 6 3 10 8 10 11 0 2 -4 4 -10 4 -5 0
-10 -5 -10 -11z"/>
<path d="M7715 13820 c-3 -5 -2 -10 4 -10 5 0 13 5 16 10 3 6 2 10 -4 10 -5 0
-13 -4 -16 -10z"/>
<path d="M7776 13818 c3 -5 10 -6 15 -3 13 9 11 12 -6 12 -8 0 -12 -4 -9 -9z"/>
<path d="M7900 13820 c-12 -8 -11 -10 8 -10 12 0 22 5 22 10 0 13 -11 13 -30
0z"/>
<path d="M8352 13808 c-7 -7 -12 -17 -12 -24 0 -6 -10 -15 -22 -19 -21 -7 -21
-8 -4 -12 16 -4 39 16 41 37 0 3 4 11 8 18 10 15 5 16 -11 0z"/>
<path d="M8435 13800 c4 -6 11 -8 16 -5 14 9 11 15 -7 15 -8 0 -12 -5 -9 -10z"/>
<path d="M7855 13790 c-3 -5 -1 -10 4 -10 6 0 11 5 11 10 0 6 -2 10 -4 10 -3
0 -8 -4 -11 -10z"/>
<path d="M7912 13793 c-10 -4 -8 -11 9 -29 12 -13 27 -24 33 -24 6 0 4 5 -4
10 -12 8 -13 11 -1 19 9 6 10 11 2 15 -6 4 -11 2 -11 -3 0 -6 -5 -11 -11 -11
-6 0 -9 7 -5 15 3 8 4 15 3 14 -1 0 -8 -3 -15 -6z"/>
<path d="M7711 13776 c-9 -11 -5 -16 20 -26 26 -11 32 -11 40 1 5 8 9 17 9 22
0 11 -25 8 -39 -5 -10 -11 -11 -10 -6 5 8 20 -8 23 -24 3z"/>
<path d="M8290 13780 c0 -5 4 -10 9 -10 6 0 13 5 16 10 3 6 -1 10 -9 10 -9 0
-16 -4 -16 -10z"/>
<path d="M8377 13783 c-4 -3 -7 -17 -7 -30 0 -18 5 -23 25 -23 14 0 28 7 31
15 4 8 15 15 26 15 11 0 16 4 12 11 -3 6 -17 8 -29 5 -13 -3 -27 -2 -30 4 -7
12 -19 13 -28 3z"/>
<path d="M7790 13760 c0 -5 15 -17 33 -25 23 -12 27 -12 15 -2 -10 8 -18 19
-18 26 0 6 -7 11 -15 11 -8 0 -15 -4 -15 -10z"/>
<path d="M7836 13761 c-3 -5 2 -11 12 -13 25 -6 53 2 47 13 -8 12 -52 12 -59
0z"/>
<path d="M8252 13761 c-10 -6 -7 -10 12 -13 21 -4 24 -3 15 8 -13 16 -11 16
-27 5z"/>
<path d="M5637 13749 c7 -7 15 -10 18 -7 3 3 -2 9 -12 12 -14 6 -15 5 -6 -5z"/>
<path d="M7770 13720 c0 -5 10 -10 23 -10 18 0 19 2 7 10 -19 13 -30 13 -30 0z"/>
<path d="M5750 13619 c0 -5 5 -7 10 -4 6 3 10 8 10 11 0 2 -4 4 -10 4 -5 0
-10 -5 -10 -11z"/>
<path d="M7970 13410 c-12 -8 -10 -10 8 -10 13 0 20 4 17 10 -7 12 -6 12 -25
0z"/>
<path d="M6610 13249 c0 -5 5 -7 10 -4 6 3 10 8 10 11 0 2 -4 4 -10 4 -5 0
-10 -5 -10 -11z"/>
<path d="M6045 8640 c3 -5 8 -10 11 -10 2 0 4 5 4 10 0 6 -5 10 -11 10 -5 0
-7 -4 -4 -10z"/>
<path d="M6196 8587 c3 -10 9 -15 12 -12 3 3 0 11 -7 18 -10 9 -11 8 -5 -6z"/>
<path d="M6228 8523 c7 -3 16 -2 19 1 4 3 -2 6 -13 5 -11 0 -14 -3 -6 -6z"/>
<path d="M6943 8040 c-1 -16 1 -17 12 -7 7 6 11 15 8 20 -8 13 -19 7 -20 -13z"/>
<path d="M7080 7930 c0 -5 5 -10 10 -10 6 0 10 5 10 10 0 6 -4 10 -10 10 -5 0
-10 -4 -10 -10z"/>
<path d="M7146 7891 c-10 -16 18 -29 77 -36 48 -6 56 -5 52 7 -4 10 -15 13
-30 10 -14 -2 -33 -1 -42 3 -10 5 -21 7 -25 7 -5 -1 -8 3 -8 8 0 12 -17 13
-24 1z"/>
<path d="M7250 7822 c-7 -13 -11 -14 -18 -4 -6 9 -16 10 -32 4 -32 -12 -13
-22 56 -31 46 -7 54 -5 54 8 0 9 -11 21 -25 28 -21 9 -27 8 -35 -5z"/>
<path d="M7385 7750 c-4 -6 -11 -8 -16 -5 -5 4 -9 1 -9 -4 0 -6 7 -11 15 -11
8 0 15 -4 15 -10 0 -5 7 -10 15 -10 8 0 15 -5 15 -11 0 -6 -9 -8 -22 -4 -15 4
-19 3 -10 -3 7 -5 10 -16 6 -25 -3 -10 -1 -17 5 -17 6 0 11 6 11 12 0 7 7 3
15 -8 8 -12 28 -27 45 -34 31 -13 44 -35 13 -23 -11 4 -14 3 -9 -5 4 -7 14
-12 21 -12 9 0 12 -6 9 -15 -4 -10 0 -15 10 -15 9 0 19 -6 22 -13 2 -7 22 -24
44 -37 22 -14 40 -28 40 -33 0 -4 5 -5 12 -1 8 5 9 2 5 -10 -4 -10 -3 -15 3
-11 5 3 20 0 32 -7 25 -13 30 -15 54 -17 14 -1 15 -3 3 -18 -13 -15 -12 -15
18 0 24 13 33 14 37 4 2 -6 4 -1 3 13 -1 18 3 25 15 24 10 -1 16 1 14 5 -3 4
11 18 31 31 19 13 30 26 24 28 -9 3 -9 8 1 19 15 18 17 55 3 65 -5 4 -1 10 10
14 11 5 27 15 35 23 13 13 12 14 -10 8 -16 -4 -31 -1 -43 11 -11 9 -22 16 -25
15 -4 -2 -7 5 -7 15 0 20 -36 18 -48 -4 -4 -8 -15 -14 -23 -14 -11 0 -12 4 -4
19 9 18 8 19 -20 11 -16 -5 -34 -11 -40 -15 -13 -8 -70 4 -70 15 0 5 16 6 35
3 28 -5 34 -3 30 9 -4 9 -19 13 -45 12 -22 -1 -40 2 -40 8 0 5 4 7 8 4 5 -3
16 4 25 15 9 10 14 19 11 19 -9 0 -48 -23 -62 -36 -7 -8 -20 -10 -30 -6 -14 6
-14 7 6 10 22 3 28 13 15 25 -3 4 -12 2 -20 -4 -7 -6 -13 -7 -13 -3 0 5 -27
10 -60 11 -51 1 -59 -1 -49 -13 9 -11 7 -14 -10 -14 -12 0 -21 6 -21 15 0 17
-16 20 -25 5z m115 -30 c0 -5 -7 -10 -16 -10 -8 0 -12 5 -9 10 3 6 10 10 16
10 5 0 9 -4 9 -10z m346 -106 c-4 -9 -9 -15 -11 -12 -3 3 -3 13 1 22 4 9 9 15
11 12 3 -3 3 -13 -1 -22z m-81 -34 c-3 -5 -10 -10 -16 -10 -5 0 -9 5 -9 10 0
6 7 10 16 10 8 0 12 -4 9 -10z"/>
<path d="M7345 7710 c3 -5 8 -10 11 -10 2 0 4 5 4 10 0 6 -5 10 -11 10 -5 0
-7 -4 -4 -10z"/>
<path d="M7890 7659 c0 -5 5 -7 10 -4 6 3 10 8 10 11 0 2 -4 4 -10 4 -5 0 -10
-5 -10 -11z"/>
<path d="M7905 7590 c-3 -5 -1 -10 4 -10 6 0 11 5 11 10 0 6 -2 10 -4 10 -3 0
-8 -4 -11 -10z"/>
</g>
</svg>
